<?xml version="1.0" encoding="us-ascii" standalone="no"?><svg xmlns="http://www.w3.org/2000/svg" xmlns:xlink="http://www.w3.org/1999/xlink" contentStyleType="text/css" height="672px" preserveAspectRatio="none" style="width:860px;height:672px;background:#FFFFFF;" version="1.1" viewBox="0 0 860 672" width="860px" zoomAndPan="magnify"><defs/><g><text fill="#000000" font-family="sans-serif" font-size="14" font-weight="bold" lengthAdjust="spacing" textLength="130" x="363.5" y="27.9951">post unlike flow</text><rect fill="none" height="46.2656" style="stroke:#000000;stroke-width:1.5;" width="176.5" x="10" y="193.8594"/><rect fill="none" height="88.3984" style="stroke:#000000;stroke-width:1.5;" width="473" x="290.5" y="486.1875"/><line style="stroke:#181818;stroke-width:0.5;stroke-dasharray:5.0,5.0;" x1="38" x2="38" y1="118.5938" y2="591.5859"/><line style="stroke:#181818;stroke-width:0.5;stroke-dasharray:5.0,5.0;" x1="156.5" x2="156.5" y1="118.5938" y2="591.5859"/><line style="stroke:#181818;stroke-width:0.5;stroke-dasharray:5.0,5.0;" x1="328.5" x2="328.5" y1="118.5938" y2="591.5859"/><line style="stroke:#181818;stroke-width:0.5;stroke-dasharray:5.0,5.0;" x1="388.5" x2="388.5" y1="118.5938" y2="591.5859"/><line style="stroke:#181818;stroke-width:0.5;stroke-dasharray:5.0,5.0;" x1="560.5" x2="560.5" y1="118.5938" y2="591.5859"/><line style="stroke:#181818;stroke-width:0.5;stroke-dasharray:5.0,5.0;" x1="758" x2="758" y1="118.5938" y2="591.5859"/><line style="stroke:#181818;stroke-width:0.5;stroke-dasharray:5.0,5.0;" x1="822" x2="822" y1="118.5938" y2="591.5859"/><text fill="#000000" font-family="sans-serif" font-size="14" lengthAdjust="spacing" textLength="31" x="20" y="115.292">User</text><ellipse cx="38.5" cy="50.7969" fill="#E2E2F0" rx="8" ry="8" style="stroke:#181818;stroke-width:0.5;"/><path d="M38.5,58.7969 L38.5,85.7969 M25.5,66.7969 L51.5,66.7969 M38.5,85.7969 L25.5,100.7969 M38.5,85.7969 L51.5,100.7969 " fill="none" style="stroke:#181818;stroke-width:0.5;"/><text fill="#000000" font-family="sans-serif" font-size="14" lengthAdjust="spacing" textLength="31" x="20" y="603.5811">User</text><ellipse cx="38.5" cy="615.3828" fill="#E2E2F0" rx="8" ry="8" style="stroke:#181818;stroke-width:0.5;"/><path d="M38.5,623.3828 L38.5,650.3828 M25.5,631.3828 L51.5,631.3828 M38.5,650.3828 L25.5,665.3828 M38.5,650.3828 L51.5,665.3828 " fill="none" style="stroke:#181818;stroke-width:0.5;"/><rect fill="#E2E2F0" height="30.2969" rx="2.5" ry="2.5" style="stroke:#181818;stroke-width:0.5;" width="40" x="136.5" y="87.2969"/><text fill="#000000" font-family="sans-serif" font-size="14" lengthAdjust="spacing" textLength="26" x="143.5" y="107.292">BFF</text><rect fill="#E2E2F0" height="30.2969" rx="2.5" ry="2.5" style="stroke:#181818;stroke-width:0.5;" width="40" x="136.5" y="590.5859"/><text fill="#000000" font-family="sans-serif" font-size="14" lengthAdjust="spacing" textLength="26" x="143.5" y="610.5811">BFF</text><rect fill="#E2E2F0" height="30.2969" rx="2.5" ry="2.5" style="stroke:#181818;stroke-width:0.5;" width="56" x="300.5" y="87.2969"/><text fill="#000000" font-family="sans-serif" font-size="14" lengthAdjust="spacing" textLength="42" x="307.5" y="107.292">Media</text><rect fill="#E2E2F0" height="30.2969" rx="2.5" ry="2.5" style="stroke:#181818;stroke-width:0.5;" width="56" x="300.5" y="590.5859"/><text fill="#000000" font-family="sans-serif" font-size="14" lengthAdjust="spacing" textLength="42" x="307.5" y="610.5811">Media</text><rect fill="#E2E2F0" height="30.2969" rx="2.5" ry="2.5" style="stroke:#181818;stroke-width:0.5;" width="44" x="366.5" y="87.2969"/><text fill="#000000" font-family="sans-serif" font-size="14" lengthAdjust="spacing" textLength="30" x="373.5" y="107.292">Like</text><rect fill="#E2E2F0" height="30.2969" rx="2.5" ry="2.5" style="stroke:#181818;stroke-width:0.5;" width="44" x="366.5" y="590.5859"/><text fill="#000000" font-family="sans-serif" font-size="14" lengthAdjust="spacing" textLength="30" x="373.5" y="610.5811">Like</text><rect fill="#E2E2F0" height="30.2969" rx="2.5" ry="2.5" style="stroke:#181818;stroke-width:0.5;" width="54" x="533.5" y="87.2969"/><text fill="#000000" font-family="sans-serif" font-size="14" lengthAdjust="spacing" textLength="40" x="540.5" y="107.292">Inbox</text><rect fill="#E2E2F0" height="30.2969" rx="2.5" ry="2.5" style="stroke:#181818;stroke-width:0.5;" width="54" x="533.5" y="590.5859"/><text fill="#000000" font-family="sans-serif" font-size="14" lengthAdjust="spacing" textLength="40" x="540.5" y="610.5811">Inbox</text><rect fill="#E2E2F0" height="30.2969" rx="2.5" ry="2.5" style="stroke:#181818;stroke-width:0.5;" width="47" x="735" y="87.2969"/><text fill="#000000" font-family="sans-serif" font-size="14" lengthAdjust="spacing" textLength="33" x="742" y="107.292">Push</text><rect fill="#E2E2F0" height="30.2969" rx="2.5" ry="2.5" style="stroke:#181818;stroke-width:0.5;" width="47" x="735" y="590.5859"/><text fill="#000000" font-family="sans-serif" font-size="14" lengthAdjust="spacing" textLength="33" x="742" y="610.5811">Push</text><path d="M797,92.2969 L848,92.2969 C853,92.2969 853,105.4453 853,105.4453 C853,105.4453 853,118.5938 848,118.5938 L797,118.5938 C792,118.5938 792,105.4453 792,105.4453 C792,105.4453 792,92.2969 797,92.2969 " fill="#E2E2F0" style="stroke:#181818;stroke-width:0.5;"/><path d="M848,92.2969 C843,92.2969 843,105.4453 843,105.4453 C843,118.5938 848,118.5938 848,118.5938 " fill="none" style="stroke:#181818;stroke-width:0.5;"/><text fill="#000000" font-family="sans-serif" font-size="14" lengthAdjust="spacing" textLength="41" x="797" y="110.292">Kafka</text><path d="M797,590.5859 L848,590.5859 C853,590.5859 853,603.7344 853,603.7344 C853,603.7344 853,616.8828 848,616.8828 L797,616.8828 C792,616.8828 792,603.7344 792,603.7344 C792,603.7344 792,590.5859 797,590.5859 " fill="#E2E2F0" style="stroke:#181818;stroke-width:0.5;"/><path d="M848,590.5859 C843,590.5859 843,603.7344 843,603.7344 C843,616.8828 848,616.8828 848,616.8828 " fill="none" style="stroke:#181818;stroke-width:0.5;"/><text fill="#000000" font-family="sans-serif" font-size="14" lengthAdjust="spacing" textLength="41" x="797" y="608.5811">Kafka</text><polygon fill="#181818" points="144.5,145.7266,154.5,149.7266,144.5,153.7266,148.5,149.7266" style="stroke:#181818;stroke-width:1.0;"/><line style="stroke:#181818;stroke-width:1.0;" x1="38.5" x2="150.5" y1="149.7266" y2="149.7266"/><text fill="#000000" font-family="sans-serif" font-size="13" lengthAdjust="spacing" textLength="81" x="45.5" y="144.6606">unlike a post</text><polygon fill="#181818" points="316.5,174.8594,326.5,178.8594,316.5,182.8594,320.5,178.8594" style="stroke:#181818;stroke-width:1.0;"/><line style="stroke:#181818;stroke-width:1.0;" x1="156.5" x2="322.5" y1="178.8594" y2="178.8594"/><text fill="#000000" font-family="sans-serif" font-size="13" lengthAdjust="spacing" textLength="148" x="163.5" y="173.7935">check if the post exists</text><path d="M10,193.8594 L76,193.8594 L76,200.9922 L66,210.9922 L10,210.9922 L10,193.8594 " fill="#EEEEEE" style="stroke:#000000;stroke-width:1.5;"/><rect fill="none" height="46.2656" style="stroke:#000000;stroke-width:1.5;" width="176.5" x="10" y="193.8594"/><text fill="#000000" font-family="sans-serif" font-size="13" font-weight="bold" lengthAdjust="spacing" textLength="21" x="25" y="206.9263">alt</text><text fill="#000000" font-family="sans-serif" font-size="11" font-weight="bold" lengthAdjust="spacing" textLength="86" x="91" y="206.0698">[if not exist]</text><polygon fill="#181818" points="49.5,228.125,39.5,232.125,49.5,236.125,45.5,232.125" style="stroke:#181818;stroke-width:1.0;"/><line style="stroke:#181818;stroke-width:1.0;" x1="43.5" x2="155.5" y1="232.125" y2="232.125"/><text fill="#000000" font-family="sans-serif" font-size="13" lengthAdjust="spacing" textLength="94" x="55.5" y="227.0591">error response</text><polygon fill="#181818" points="376.5,264.2578,386.5,268.2578,376.5,272.2578,380.5,268.2578" style="stroke:#181818;stroke-width:1.0;"/><line style="stroke:#181818;stroke-width:1.0;" x1="156.5" x2="382.5" y1="268.2578" y2="268.2578"/><text fill="#000000" font-family="sans-serif" font-size="13" lengthAdjust="spacing" textLength="90" x="163.5" y="263.1919">unlike request</text><line style="stroke:#181818;stroke-width:1.0;" x1="388.5" x2="430.5" y1="312.5234" y2="312.5234"/><line style="stroke:#181818;stroke-width:1.0;" x1="430.5" x2="430.5" y1="312.5234" y2="325.5234"/><line style="stroke:#181818;stroke-width:1.0;" x1="389.5" x2="430.5" y1="325.5234" y2="325.5234"/><polygon fill="#181818" points="399.5,321.5234,389.5,325.5234,399.5,329.5234,395.5,325.5234" style="stroke:#181818;stroke-width:1.0;"/><text fill="#000000" font-family="sans-serif" font-size="13" lengthAdjust="spacing" textLength="93" x="395.5" y="292.3247">delete like info</text><text fill="#000000" font-family="sans-serif" font-size="13" lengthAdjust="spacing" textLength="158" x="395.5" y="307.4575">(Do nothing if not found)</text><polygon fill="#181818" points="167.5,350.6563,157.5,354.6563,167.5,358.6563,163.5,354.6563" style="stroke:#181818;stroke-width:1.0;"/><line style="stroke:#181818;stroke-width:1.0;" x1="161.5" x2="387.5" y1="354.6563" y2="354.6563"/><text fill="#000000" font-family="sans-serif" font-size="13" lengthAdjust="spacing" textLength="59" x="173.5" y="349.5903">response</text><polygon fill="#181818" points="49.5,379.7891,39.5,383.7891,49.5,387.7891,45.5,383.7891" style="stroke:#181818;stroke-width:1.0;"/><line style="stroke:#181818;stroke-width:1.0;" x1="43.5" x2="155.5" y1="383.7891" y2="383.7891"/><text fill="#000000" font-family="sans-serif" font-size="13" lengthAdjust="spacing" textLength="59" x="55.5" y="378.7231">response</text><polygon fill="#181818" points="810.5,408.9219,820.5,412.9219,810.5,416.9219,814.5,412.9219" style="stroke:#181818;stroke-width:1.0;"/><line style="stroke:#181818;stroke-width:1.0;stroke-dasharray:2.0,2.0;" x1="388.5" x2="816.5" y1="412.9219" y2="412.9219"/><text fill="#000000" font-family="sans-serif" font-size="13" lengthAdjust="spacing" textLength="238" x="395.5" y="407.856">publish like_deleted event(w/ post id)</text><polygon fill="#181818" points="571.5,438.0547,561.5,442.0547,571.5,446.0547,567.5,442.0547" style="stroke:#181818;stroke-width:1.0;"/><line style="stroke:#181818;stroke-width:1.0;stroke-dasharray:2.0,2.0;" x1="565.5" x2="821.5" y1="442.0547" y2="442.0547"/><text fill="#000000" font-family="sans-serif" font-size="13" lengthAdjust="spacing" textLength="185" x="577.5" y="436.9888">comsume like_deleted event</text><polygon fill="#181818" points="399.5,467.1875,389.5,471.1875,399.5,475.1875,395.5,471.1875" style="stroke:#181818;stroke-width:1.0;"/><line style="stroke:#181818;stroke-width:1.0;" x1="393.5" x2="559.5" y1="471.1875" y2="471.1875"/><text fill="#000000" font-family="sans-serif" font-size="13" lengthAdjust="spacing" textLength="102" x="405.5" y="466.1216">request like info</text><path d="M290.5,486.1875 L356.5,486.1875 L356.5,493.3203 L346.5,503.3203 L290.5,503.3203 L290.5,486.1875 " fill="#EEEEEE" style="stroke:#000000;stroke-width:1.5;"/><rect fill="none" height="88.3984" style="stroke:#000000;stroke-width:1.5;" width="473" x="290.5" y="486.1875"/><text fill="#000000" font-family="sans-serif" font-size="13" font-weight="bold" lengthAdjust="spacing" textLength="21" x="305.5" y="499.2544">alt</text><text fill="#000000" font-family="sans-serif" font-size="11" font-weight="bold" lengthAdjust="spacing" textLength="86" x="371.5" y="498.3979">[if not exist]</text><polygon fill="#181818" points="339.5,520.4531,329.5,524.4531,339.5,528.4531,335.5,524.4531" style="stroke:#181818;stroke-width:1.0;"/><line style="stroke:#181818;stroke-width:1.0;" x1="333.5" x2="559.5" y1="524.4531" y2="524.4531"/><text fill="#000000" font-family="sans-serif" font-size="13" lengthAdjust="spacing" textLength="152" x="345.5" y="519.3872">request post's author id</text><line style="stroke:#181818;stroke-width:1.0;" x1="560.5" x2="602.5" y1="553.5859" y2="553.5859"/><line style="stroke:#181818;stroke-width:1.0;" x1="602.5" x2="602.5" y1="553.5859" y2="566.5859"/><line style="stroke:#181818;stroke-width:1.0;" x1="561.5" x2="602.5" y1="566.5859" y2="566.5859"/><polygon fill="#181818" points="571.5,562.5859,561.5,566.5859,571.5,570.5859,567.5,566.5859" style="stroke:#181818;stroke-width:1.0;"/><text fill="#000000" font-family="sans-serif" font-size="13" lengthAdjust="spacing" textLength="184" x="567.5" y="548.52">insert/update user inbox info</text><!--SRC=[RL31JiCm3BtdAwnT68TfzmbnG6WI0YGkt91GrZWqQfkKn67xVEoaxLJ1ASvxjf_V8qSzmcOCYI3xtdK8jW_dZLAweH3XFM44dI3pgqOToJLkr9xWuNWK_6Jj2dv5uxGGWnGhwaMMCoCYA-B9dy9562V5YdhBgHLcv5TzPym8pzfsHQ6JGYcv37RtSibXjg1132c6X2cd7A1fiUd0MQ0M2mzuSOcIqZq9xCE4r9LtkxeIO-GS8gOn-8GAlPdtYjGY6P7FuzdoMKY3FHAM3xkpuSDl7uCejSv_pQ8sP6zkorOMhOEBtkgM1QqgB5D2E70-fzvnL89_Lb43-8EUjkTzDUjOedINkH8rPnA6b0VyPqwLZgkJoT_Loj_Obeafy7b4v6yIw4mj9-dCjN6wmh6bIFiy6irX5SUrfUXmuhy0]--></g></svg>