<?xml version="1.0" encoding="us-ascii" standalone="no"?><svg xmlns="http://www.w3.org/2000/svg" xmlns:xlink="http://www.w3.org/1999/xlink" contentStyleType="text/css" height="800px" preserveAspectRatio="none" style="width:1174px;height:800px;background:#FFFFFF;" version="1.1" viewBox="0 0 1174 800" width="1174px" zoomAndPan="magnify"><defs/><g><text fill="#000000" font-family="sans-serif" font-size="14" font-weight="bold" lengthAdjust="spacing" textLength="244" x="463.5" y="27.9951">add a threaded comment flow</text><rect fill="none" height="46.2656" style="stroke:#000000;stroke-width:1.5;" width="282.5" x="10" y="235.9922"/><rect fill="none" height="219.0625" style="stroke:#000000;stroke-width:1.5;" width="729.5" x="376.5" y="484.0547"/><line style="stroke:#181818;stroke-width:0.5;stroke-dasharray:5.0,5.0;" x1="38" x2="38" y1="118.5938" y2="720.1172"/><line style="stroke:#181818;stroke-width:0.5;stroke-dasharray:5.0,5.0;" x1="262.5" x2="262.5" y1="118.5938" y2="720.1172"/><line style="stroke:#181818;stroke-width:0.5;stroke-dasharray:5.0,5.0;" x1="429.5" x2="429.5" y1="118.5938" y2="720.1172"/><line style="stroke:#181818;stroke-width:0.5;stroke-dasharray:5.0,5.0;" x1="646.5" x2="646.5" y1="118.5938" y2="720.1172"/><line style="stroke:#181818;stroke-width:0.5;stroke-dasharray:5.0,5.0;" x1="812.5" x2="812.5" y1="118.5938" y2="720.1172"/><line style="stroke:#181818;stroke-width:0.5;stroke-dasharray:5.0,5.0;" x1="1072" x2="1072" y1="118.5938" y2="720.1172"/><line style="stroke:#181818;stroke-width:0.5;stroke-dasharray:5.0,5.0;" x1="1136" x2="1136" y1="118.5938" y2="720.1172"/><text fill="#000000" font-family="sans-serif" font-size="14" lengthAdjust="spacing" textLength="31" x="20" y="115.292">User</text><ellipse cx="38.5" cy="50.7969" fill="#E2E2F0" rx="8" ry="8" style="stroke:#181818;stroke-width:0.5;"/><path d="M38.5,58.7969 L38.5,85.7969 M25.5,66.7969 L51.5,66.7969 M38.5,85.7969 L25.5,100.7969 M38.5,85.7969 L51.5,100.7969 " fill="none" style="stroke:#181818;stroke-width:0.5;"/><text fill="#000000" font-family="sans-serif" font-size="14" lengthAdjust="spacing" textLength="31" x="20" y="732.1123">User</text><ellipse cx="38.5" cy="743.9141" fill="#E2E2F0" rx="8" ry="8" style="stroke:#181818;stroke-width:0.5;"/><path d="M38.5,751.9141 L38.5,778.9141 M25.5,759.9141 L51.5,759.9141 M38.5,778.9141 L25.5,793.9141 M38.5,778.9141 L51.5,793.9141 " fill="none" style="stroke:#181818;stroke-width:0.5;"/><rect fill="#E2E2F0" height="30.2969" rx="2.5" ry="2.5" style="stroke:#181818;stroke-width:0.5;" width="40" x="242.5" y="87.2969"/><text fill="#000000" font-family="sans-serif" font-size="14" lengthAdjust="spacing" textLength="26" x="249.5" y="107.292">BFF</text><rect fill="#E2E2F0" height="30.2969" rx="2.5" ry="2.5" style="stroke:#181818;stroke-width:0.5;" width="40" x="242.5" y="719.1172"/><text fill="#000000" font-family="sans-serif" font-size="14" lengthAdjust="spacing" textLength="26" x="249.5" y="739.1123">BFF</text><rect fill="#E2E2F0" height="30.2969" rx="2.5" ry="2.5" style="stroke:#181818;stroke-width:0.5;" width="86" x="386.5" y="87.2969"/><text fill="#000000" font-family="sans-serif" font-size="14" lengthAdjust="spacing" textLength="72" x="393.5" y="107.292">Comment</text><rect fill="#E2E2F0" height="30.2969" rx="2.5" ry="2.5" style="stroke:#181818;stroke-width:0.5;" width="86" x="386.5" y="719.1172"/><text fill="#000000" font-family="sans-serif" font-size="14" lengthAdjust="spacing" textLength="72" x="393.5" y="739.1123">Comment</text><rect fill="#E2E2F0" height="30.2969" rx="2.5" ry="2.5" style="stroke:#181818;stroke-width:0.5;" width="56" x="618.5" y="87.2969"/><text fill="#000000" font-family="sans-serif" font-size="14" lengthAdjust="spacing" textLength="42" x="625.5" y="107.292">Media</text><rect fill="#E2E2F0" height="30.2969" rx="2.5" ry="2.5" style="stroke:#181818;stroke-width:0.5;" width="56" x="618.5" y="719.1172"/><text fill="#000000" font-family="sans-serif" font-size="14" lengthAdjust="spacing" textLength="42" x="625.5" y="739.1123">Media</text><rect fill="#E2E2F0" height="30.2969" rx="2.5" ry="2.5" style="stroke:#181818;stroke-width:0.5;" width="54" x="785.5" y="87.2969"/><text fill="#000000" font-family="sans-serif" font-size="14" lengthAdjust="spacing" textLength="40" x="792.5" y="107.292">Inbox</text><rect fill="#E2E2F0" height="30.2969" rx="2.5" ry="2.5" style="stroke:#181818;stroke-width:0.5;" width="54" x="785.5" y="719.1172"/><text fill="#000000" font-family="sans-serif" font-size="14" lengthAdjust="spacing" textLength="40" x="792.5" y="739.1123">Inbox</text><rect fill="#E2E2F0" height="30.2969" rx="2.5" ry="2.5" style="stroke:#181818;stroke-width:0.5;" width="47" x="1049" y="87.2969"/><text fill="#000000" font-family="sans-serif" font-size="14" lengthAdjust="spacing" textLength="33" x="1056" y="107.292">Push</text><rect fill="#E2E2F0" height="30.2969" rx="2.5" ry="2.5" style="stroke:#181818;stroke-width:0.5;" width="47" x="1049" y="719.1172"/><text fill="#000000" font-family="sans-serif" font-size="14" lengthAdjust="spacing" textLength="33" x="1056" y="739.1123">Push</text><path d="M1111,92.2969 L1162,92.2969 C1167,92.2969 1167,105.4453 1167,105.4453 C1167,105.4453 1167,118.5938 1162,118.5938 L1111,118.5938 C1106,118.5938 1106,105.4453 1106,105.4453 C1106,105.4453 1106,92.2969 1111,92.2969 " fill="#E2E2F0" style="stroke:#181818;stroke-width:0.5;"/><path d="M1162,92.2969 C1157,92.2969 1157,105.4453 1157,105.4453 C1157,118.5938 1162,118.5938 1162,118.5938 " fill="none" style="stroke:#181818;stroke-width:0.5;"/><text fill="#000000" font-family="sans-serif" font-size="14" lengthAdjust="spacing" textLength="41" x="1111" y="110.292">Kafka</text><path d="M1111,719.1172 L1162,719.1172 C1167,719.1172 1167,732.2656 1167,732.2656 C1167,732.2656 1167,745.4141 1162,745.4141 L1111,745.4141 C1106,745.4141 1106,732.2656 1106,732.2656 C1106,732.2656 1106,719.1172 1111,719.1172 " fill="#E2E2F0" style="stroke:#181818;stroke-width:0.5;"/><path d="M1162,719.1172 C1157,719.1172 1157,732.2656 1157,732.2656 C1157,745.4141 1162,745.4141 1162,745.4141 " fill="none" style="stroke:#181818;stroke-width:0.5;"/><text fill="#000000" font-family="sans-serif" font-size="14" lengthAdjust="spacing" textLength="41" x="1111" y="737.1123">Kafka</text><polygon fill="#181818" points="250.5,145.7266,260.5,149.7266,250.5,153.7266,254.5,149.7266" style="stroke:#181818;stroke-width:1.0;"/><line style="stroke:#181818;stroke-width:1.0;" x1="38.5" x2="256.5" y1="149.7266" y2="149.7266"/><text fill="#000000" font-family="sans-serif" font-size="13" lengthAdjust="spacing" textLength="200" x="45.5" y="144.6606">add a comment on a comment</text><polygon fill="#181818" points="417.5,174.8594,427.5,178.8594,417.5,182.8594,421.5,178.8594" style="stroke:#181818;stroke-width:1.0;"/><line style="stroke:#181818;stroke-width:1.0;" x1="262.5" x2="423.5" y1="178.8594" y2="178.8594"/><text fill="#000000" font-family="sans-serif" font-size="13" lengthAdjust="spacing" textLength="143" x="269.5" y="173.7935">comment add request</text><line style="stroke:#181818;stroke-width:1.0;" x1="429.5" x2="471.5" y1="207.9922" y2="207.9922"/><line style="stroke:#181818;stroke-width:1.0;" x1="471.5" x2="471.5" y1="207.9922" y2="220.9922"/><line style="stroke:#181818;stroke-width:1.0;" x1="430.5" x2="471.5" y1="220.9922" y2="220.9922"/><polygon fill="#181818" points="440.5,216.9922,430.5,220.9922,440.5,224.9922,436.5,220.9922" style="stroke:#181818;stroke-width:1.0;"/><text fill="#000000" font-family="sans-serif" font-size="13" lengthAdjust="spacing" textLength="203" x="436.5" y="202.9263">check if parent comment exists</text><path d="M10,235.9922 L76,235.9922 L76,243.125 L66,253.125 L10,253.125 L10,235.9922 " fill="#EEEEEE" style="stroke:#000000;stroke-width:1.5;"/><rect fill="none" height="46.2656" style="stroke:#000000;stroke-width:1.5;" width="282.5" x="10" y="235.9922"/><text fill="#000000" font-family="sans-serif" font-size="13" font-weight="bold" lengthAdjust="spacing" textLength="21" x="25" y="249.0591">alt</text><text fill="#000000" font-family="sans-serif" font-size="11" font-weight="bold" lengthAdjust="spacing" textLength="86" x="91" y="248.2026">[if not exist]</text><polygon fill="#181818" points="49.5,270.2578,39.5,274.2578,49.5,278.2578,45.5,274.2578" style="stroke:#181818;stroke-width:1.0;"/><line style="stroke:#181818;stroke-width:1.0;" x1="43.5" x2="261.5" y1="274.2578" y2="274.2578"/><text fill="#000000" font-family="sans-serif" font-size="13" lengthAdjust="spacing" textLength="94" x="55.5" y="269.1919">error response</text><line style="stroke:#181818;stroke-width:1.0;" x1="429.5" x2="471.5" y1="310.3906" y2="310.3906"/><line style="stroke:#181818;stroke-width:1.0;" x1="471.5" x2="471.5" y1="310.3906" y2="323.3906"/><line style="stroke:#181818;stroke-width:1.0;" x1="430.5" x2="471.5" y1="323.3906" y2="323.3906"/><polygon fill="#181818" points="440.5,319.3906,430.5,323.3906,440.5,327.3906,436.5,323.3906" style="stroke:#181818;stroke-width:1.0;"/><text fill="#000000" font-family="sans-serif" font-size="13" lengthAdjust="spacing" textLength="102" x="436.5" y="305.3247">insert comment</text><polygon fill="#181818" points="273.5,348.5234,263.5,352.5234,273.5,356.5234,269.5,352.5234" style="stroke:#181818;stroke-width:1.0;"/><line style="stroke:#181818;stroke-width:1.0;" x1="267.5" x2="428.5" y1="352.5234" y2="352.5234"/><text fill="#000000" font-family="sans-serif" font-size="13" lengthAdjust="spacing" textLength="59" x="279.5" y="347.4575">response</text><polygon fill="#181818" points="49.5,377.6563,39.5,381.6563,49.5,385.6563,45.5,381.6563" style="stroke:#181818;stroke-width:1.0;"/><line style="stroke:#181818;stroke-width:1.0;" x1="43.5" x2="261.5" y1="381.6563" y2="381.6563"/><text fill="#000000" font-family="sans-serif" font-size="13" lengthAdjust="spacing" textLength="59" x="55.5" y="376.5903">response</text><polygon fill="#181818" points="1124.5,406.7891,1134.5,410.7891,1124.5,414.7891,1128.5,410.7891" style="stroke:#181818;stroke-width:1.0;"/><line style="stroke:#181818;stroke-width:1.0;stroke-dasharray:2.0,2.0;" x1="429.5" x2="1130.5" y1="410.7891" y2="410.7891"/><text fill="#000000" font-family="sans-serif" font-size="13" lengthAdjust="spacing" textLength="208" x="436.5" y="405.7231">publish comment_created event</text><polygon fill="#181818" points="823.5,435.9219,813.5,439.9219,823.5,443.9219,819.5,439.9219" style="stroke:#181818;stroke-width:1.0;"/><line style="stroke:#181818;stroke-width:1.0;stroke-dasharray:2.0,2.0;" x1="817.5" x2="1135.5" y1="439.9219" y2="439.9219"/><text fill="#000000" font-family="sans-serif" font-size="13" lengthAdjust="spacing" textLength="227" x="829.5" y="434.856">comsume comment_created event</text><polygon fill="#181818" points="440.5,465.0547,430.5,469.0547,440.5,473.0547,436.5,469.0547" style="stroke:#181818;stroke-width:1.0;"/><line style="stroke:#181818;stroke-width:1.0;" x1="434.5" x2="811.5" y1="469.0547" y2="469.0547"/><text fill="#000000" font-family="sans-serif" font-size="13" lengthAdjust="spacing" textLength="143" x="446.5" y="463.9888">request comment info</text><path d="M376.5,484.0547 L442.5,484.0547 L442.5,491.1875 L432.5,501.1875 L376.5,501.1875 L376.5,484.0547 " fill="#EEEEEE" style="stroke:#000000;stroke-width:1.5;"/><rect fill="none" height="219.0625" style="stroke:#000000;stroke-width:1.5;" width="729.5" x="376.5" y="484.0547"/><text fill="#000000" font-family="sans-serif" font-size="13" font-weight="bold" lengthAdjust="spacing" textLength="21" x="391.5" y="497.1216">alt</text><text fill="#000000" font-family="sans-serif" font-size="11" font-weight="bold" lengthAdjust="spacing" textLength="65" x="457.5" y="496.2651">[if exists]</text><polygon fill="#181818" points="440.5,518.3203,430.5,522.3203,440.5,526.3203,436.5,522.3203" style="stroke:#181818;stroke-width:1.0;"/><line style="stroke:#181818;stroke-width:1.0;" x1="434.5" x2="811.5" y1="522.3203" y2="522.3203"/><text fill="#000000" font-family="sans-serif" font-size="13" lengthAdjust="spacing" textLength="222" x="446.5" y="517.2544">request parent comment author id</text><polygon fill="#181818" points="657.5,547.4531,647.5,551.4531,657.5,555.4531,653.5,551.4531" style="stroke:#181818;stroke-width:1.0;"/><line style="stroke:#181818;stroke-width:1.0;" x1="651.5" x2="811.5" y1="551.4531" y2="551.4531"/><text fill="#000000" font-family="sans-serif" font-size="13" lengthAdjust="spacing" textLength="142" x="663.5" y="546.3872">request post author id</text><line style="stroke:#181818;stroke-width:1.0;" x1="812.5" x2="854.5" y1="595.7188" y2="595.7188"/><line style="stroke:#181818;stroke-width:1.0;" x1="854.5" x2="854.5" y1="595.7188" y2="608.7188"/><line style="stroke:#181818;stroke-width:1.0;" x1="813.5" x2="854.5" y1="608.7188" y2="608.7188"/><polygon fill="#181818" points="823.5,604.7188,813.5,608.7188,823.5,612.7188,819.5,608.7188" style="stroke:#181818;stroke-width:1.0;"/><text fill="#000000" font-family="sans-serif" font-size="13" lengthAdjust="spacing" textLength="184" x="819.5" y="575.52">insert/update user inbox info</text><text fill="#000000" font-family="sans-serif" font-size="13" lengthAdjust="spacing" textLength="164" x="819.5" y="590.6528">(parent comment author)</text><line style="stroke:#181818;stroke-width:1.0;" x1="812.5" x2="854.5" y1="652.9844" y2="652.9844"/><line style="stroke:#181818;stroke-width:1.0;" x1="854.5" x2="854.5" y1="652.9844" y2="665.9844"/><line style="stroke:#181818;stroke-width:1.0;" x1="813.5" x2="854.5" y1="665.9844" y2="665.9844"/><polygon fill="#181818" points="823.5,661.9844,813.5,665.9844,823.5,669.9844,819.5,665.9844" style="stroke:#181818;stroke-width:1.0;"/><text fill="#000000" font-family="sans-serif" font-size="13" lengthAdjust="spacing" textLength="184" x="819.5" y="632.7856">insert/update user inbox info</text><text fill="#000000" font-family="sans-serif" font-size="13" lengthAdjust="spacing" textLength="84" x="819.5" y="647.9185">(post author)</text><polygon fill="#181818" points="1060.5,691.1172,1070.5,695.1172,1060.5,699.1172,1064.5,695.1172" style="stroke:#181818;stroke-width:1.0;"/><line style="stroke:#181818;stroke-width:1.0;" x1="812.5" x2="1066.5" y1="695.1172" y2="695.1172"/><text fill="#000000" font-family="sans-serif" font-size="13" lengthAdjust="spacing" textLength="236" x="819.5" y="690.0513">request push notification reservation</text><!--SRC=[bL8zJyCm4DtzAwnEC5Ji5M80gH92bLZOa90RdvLJ4Zlue_JdS-SuQOtIWSdslNVFpyyNCVOWDqfhgMHiFIWDMZPk6C16QNhtin52DT5v-H70InLaebMCoaTiS5J4UjxlkNuqfYg_5162Ybu57q2ZOd3WJGMzsgCxCuIygQ3t55f6Hbh5Tu84yasPBWjrl162_Sdj4_lPoUbXytkSlHm4uKmhnzr2uXOFf1sYc6iLhuMcasWa-M9ivi0PGmn2zP51wqfbylEudVo0znIbXp0w6q20rQjt884-LbP9OO6N_afxgIwA99b3sL5UnnufkW9zDVJJaNuQJgoVIPcU4yzPX3J03NecLNvBNaiMQ8sRaoYvt6xwawDAiQMCK5zQyeXSDRYmIYlcf_0UqgZ9SnxN2SckFktTwdtt_vUvkBXgvi6ySihZIgE01XiLaUQFFWdyAU_vzty1]--></g></svg>