<?xml version="1.0" encoding="us-ascii" standalone="no"?><svg xmlns="http://www.w3.org/2000/svg" xmlns:xlink="http://www.w3.org/1999/xlink" contentStyleType="text/css" height="672px" preserveAspectRatio="none" style="width:930px;height:672px;background:#FFFFFF;" version="1.1" viewBox="0 0 930 672" width="930px" zoomAndPan="magnify"><defs/><g><text fill="#000000" font-family="sans-serif" font-size="14" font-weight="bold" lengthAdjust="spacing" textLength="169" x="379" y="27.9951">comment unlike flow</text><rect fill="none" height="46.2656" style="stroke:#000000;stroke-width:1.5;" width="197.5" x="10" y="193.8594"/><rect fill="none" height="88.3984" style="stroke:#000000;stroke-width:1.5;" width="503" x="330.5" y="486.1875"/><line style="stroke:#181818;stroke-width:0.5;stroke-dasharray:5.0,5.0;" x1="38" x2="38" y1="118.5938" y2="591.5859"/><line style="stroke:#181818;stroke-width:0.5;stroke-dasharray:5.0,5.0;" x1="177.5" x2="177.5" y1="118.5938" y2="591.5859"/><line style="stroke:#181818;stroke-width:0.5;stroke-dasharray:5.0,5.0;" x1="383.5" x2="383.5" y1="118.5938" y2="591.5859"/><line style="stroke:#181818;stroke-width:0.5;stroke-dasharray:5.0,5.0;" x1="458.5" x2="458.5" y1="118.5938" y2="591.5859"/><line style="stroke:#181818;stroke-width:0.5;stroke-dasharray:5.0,5.0;" x1="630.5" x2="630.5" y1="118.5938" y2="591.5859"/><line style="stroke:#181818;stroke-width:0.5;stroke-dasharray:5.0,5.0;" x1="828" x2="828" y1="118.5938" y2="591.5859"/><line style="stroke:#181818;stroke-width:0.5;stroke-dasharray:5.0,5.0;" x1="892" x2="892" y1="118.5938" y2="591.5859"/><text fill="#000000" font-family="sans-serif" font-size="14" lengthAdjust="spacing" textLength="31" x="20" y="115.292">User</text><ellipse cx="38.5" cy="50.7969" fill="#E2E2F0" rx="8" ry="8" style="stroke:#181818;stroke-width:0.5;"/><path d="M38.5,58.7969 L38.5,85.7969 M25.5,66.7969 L51.5,66.7969 M38.5,85.7969 L25.5,100.7969 M38.5,85.7969 L51.5,100.7969 " fill="none" style="stroke:#181818;stroke-width:0.5;"/><text fill="#000000" font-family="sans-serif" font-size="14" lengthAdjust="spacing" textLength="31" x="20" y="603.5811">User</text><ellipse cx="38.5" cy="615.3828" fill="#E2E2F0" rx="8" ry="8" style="stroke:#181818;stroke-width:0.5;"/><path d="M38.5,623.3828 L38.5,650.3828 M25.5,631.3828 L51.5,631.3828 M38.5,650.3828 L25.5,665.3828 M38.5,650.3828 L51.5,665.3828 " fill="none" style="stroke:#181818;stroke-width:0.5;"/><rect fill="#E2E2F0" height="30.2969" rx="2.5" ry="2.5" style="stroke:#181818;stroke-width:0.5;" width="40" x="157.5" y="87.2969"/><text fill="#000000" font-family="sans-serif" font-size="14" lengthAdjust="spacing" textLength="26" x="164.5" y="107.292">BFF</text><rect fill="#E2E2F0" height="30.2969" rx="2.5" ry="2.5" style="stroke:#181818;stroke-width:0.5;" width="40" x="157.5" y="590.5859"/><text fill="#000000" font-family="sans-serif" font-size="14" lengthAdjust="spacing" textLength="26" x="164.5" y="610.5811">BFF</text><rect fill="#E2E2F0" height="30.2969" rx="2.5" ry="2.5" style="stroke:#181818;stroke-width:0.5;" width="86" x="340.5" y="87.2969"/><text fill="#000000" font-family="sans-serif" font-size="14" lengthAdjust="spacing" textLength="72" x="347.5" y="107.292">Comment</text><rect fill="#E2E2F0" height="30.2969" rx="2.5" ry="2.5" style="stroke:#181818;stroke-width:0.5;" width="86" x="340.5" y="590.5859"/><text fill="#000000" font-family="sans-serif" font-size="14" lengthAdjust="spacing" textLength="72" x="347.5" y="610.5811">Comment</text><rect fill="#E2E2F0" height="30.2969" rx="2.5" ry="2.5" style="stroke:#181818;stroke-width:0.5;" width="44" x="436.5" y="87.2969"/><text fill="#000000" font-family="sans-serif" font-size="14" lengthAdjust="spacing" textLength="30" x="443.5" y="107.292">Like</text><rect fill="#E2E2F0" height="30.2969" rx="2.5" ry="2.5" style="stroke:#181818;stroke-width:0.5;" width="44" x="436.5" y="590.5859"/><text fill="#000000" font-family="sans-serif" font-size="14" lengthAdjust="spacing" textLength="30" x="443.5" y="610.5811">Like</text><rect fill="#E2E2F0" height="30.2969" rx="2.5" ry="2.5" style="stroke:#181818;stroke-width:0.5;" width="54" x="603.5" y="87.2969"/><text fill="#000000" font-family="sans-serif" font-size="14" lengthAdjust="spacing" textLength="40" x="610.5" y="107.292">Inbox</text><rect fill="#E2E2F0" height="30.2969" rx="2.5" ry="2.5" style="stroke:#181818;stroke-width:0.5;" width="54" x="603.5" y="590.5859"/><text fill="#000000" font-family="sans-serif" font-size="14" lengthAdjust="spacing" textLength="40" x="610.5" y="610.5811">Inbox</text><rect fill="#E2E2F0" height="30.2969" rx="2.5" ry="2.5" style="stroke:#181818;stroke-width:0.5;" width="47" x="805" y="87.2969"/><text fill="#000000" font-family="sans-serif" font-size="14" lengthAdjust="spacing" textLength="33" x="812" y="107.292">Push</text><rect fill="#E2E2F0" height="30.2969" rx="2.5" ry="2.5" style="stroke:#181818;stroke-width:0.5;" width="47" x="805" y="590.5859"/><text fill="#000000" font-family="sans-serif" font-size="14" lengthAdjust="spacing" textLength="33" x="812" y="610.5811">Push</text><path d="M867,92.2969 L918,92.2969 C923,92.2969 923,105.4453 923,105.4453 C923,105.4453 923,118.5938 918,118.5938 L867,118.5938 C862,118.5938 862,105.4453 862,105.4453 C862,105.4453 862,92.2969 867,92.2969 " fill="#E2E2F0" style="stroke:#181818;stroke-width:0.5;"/><path d="M918,92.2969 C913,92.2969 913,105.4453 913,105.4453 C913,118.5938 918,118.5938 918,118.5938 " fill="none" style="stroke:#181818;stroke-width:0.5;"/><text fill="#000000" font-family="sans-serif" font-size="14" lengthAdjust="spacing" textLength="41" x="867" y="110.292">Kafka</text><path d="M867,590.5859 L918,590.5859 C923,590.5859 923,603.7344 923,603.7344 C923,603.7344 923,616.8828 918,616.8828 L867,616.8828 C862,616.8828 862,603.7344 862,603.7344 C862,603.7344 862,590.5859 867,590.5859 " fill="#E2E2F0" style="stroke:#181818;stroke-width:0.5;"/><path d="M918,590.5859 C913,590.5859 913,603.7344 913,603.7344 C913,616.8828 918,616.8828 918,616.8828 " fill="none" style="stroke:#181818;stroke-width:0.5;"/><text fill="#000000" font-family="sans-serif" font-size="14" lengthAdjust="spacing" textLength="41" x="867" y="608.5811">Kafka</text><polygon fill="#181818" points="165.5,145.7266,175.5,149.7266,165.5,153.7266,169.5,149.7266" style="stroke:#181818;stroke-width:1.0;"/><line style="stroke:#181818;stroke-width:1.0;" x1="38.5" x2="171.5" y1="149.7266" y2="149.7266"/><text fill="#000000" font-family="sans-serif" font-size="13" lengthAdjust="spacing" textLength="115" x="45.5" y="144.6606">unlike a comment</text><polygon fill="#181818" points="371.5,174.8594,381.5,178.8594,371.5,182.8594,375.5,178.8594" style="stroke:#181818;stroke-width:1.0;"/><line style="stroke:#181818;stroke-width:1.0;" x1="177.5" x2="377.5" y1="178.8594" y2="178.8594"/><text fill="#000000" font-family="sans-serif" font-size="13" lengthAdjust="spacing" textLength="182" x="184.5" y="173.7935">check if the comment exists</text><path d="M10,193.8594 L76,193.8594 L76,200.9922 L66,210.9922 L10,210.9922 L10,193.8594 " fill="#EEEEEE" style="stroke:#000000;stroke-width:1.5;"/><rect fill="none" height="46.2656" style="stroke:#000000;stroke-width:1.5;" width="197.5" x="10" y="193.8594"/><text fill="#000000" font-family="sans-serif" font-size="13" font-weight="bold" lengthAdjust="spacing" textLength="21" x="25" y="206.9263">alt</text><text fill="#000000" font-family="sans-serif" font-size="11" font-weight="bold" lengthAdjust="spacing" textLength="86" x="91" y="206.0698">[if not exist]</text><polygon fill="#181818" points="49.5,228.125,39.5,232.125,49.5,236.125,45.5,232.125" style="stroke:#181818;stroke-width:1.0;"/><line style="stroke:#181818;stroke-width:1.0;" x1="43.5" x2="176.5" y1="232.125" y2="232.125"/><text fill="#000000" font-family="sans-serif" font-size="13" lengthAdjust="spacing" textLength="94" x="55.5" y="227.0591">error response</text><polygon fill="#181818" points="446.5,264.2578,456.5,268.2578,446.5,272.2578,450.5,268.2578" style="stroke:#181818;stroke-width:1.0;"/><line style="stroke:#181818;stroke-width:1.0;" x1="177.5" x2="452.5" y1="268.2578" y2="268.2578"/><text fill="#000000" font-family="sans-serif" font-size="13" lengthAdjust="spacing" textLength="90" x="184.5" y="263.1919">unlike request</text><line style="stroke:#181818;stroke-width:1.0;" x1="458.5" x2="500.5" y1="312.5234" y2="312.5234"/><line style="stroke:#181818;stroke-width:1.0;" x1="500.5" x2="500.5" y1="312.5234" y2="325.5234"/><line style="stroke:#181818;stroke-width:1.0;" x1="459.5" x2="500.5" y1="325.5234" y2="325.5234"/><polygon fill="#181818" points="469.5,321.5234,459.5,325.5234,469.5,329.5234,465.5,325.5234" style="stroke:#181818;stroke-width:1.0;"/><text fill="#000000" font-family="sans-serif" font-size="13" lengthAdjust="spacing" textLength="93" x="465.5" y="292.3247">delete like info</text><text fill="#000000" font-family="sans-serif" font-size="13" lengthAdjust="spacing" textLength="158" x="465.5" y="307.4575">(Do nothing if not found)</text><polygon fill="#181818" points="188.5,350.6563,178.5,354.6563,188.5,358.6563,184.5,354.6563" style="stroke:#181818;stroke-width:1.0;"/><line style="stroke:#181818;stroke-width:1.0;" x1="182.5" x2="457.5" y1="354.6563" y2="354.6563"/><text fill="#000000" font-family="sans-serif" font-size="13" lengthAdjust="spacing" textLength="59" x="194.5" y="349.5903">response</text><polygon fill="#181818" points="49.5,379.7891,39.5,383.7891,49.5,387.7891,45.5,383.7891" style="stroke:#181818;stroke-width:1.0;"/><line style="stroke:#181818;stroke-width:1.0;" x1="43.5" x2="176.5" y1="383.7891" y2="383.7891"/><text fill="#000000" font-family="sans-serif" font-size="13" lengthAdjust="spacing" textLength="59" x="55.5" y="378.7231">response</text><polygon fill="#181818" points="880.5,408.9219,890.5,412.9219,880.5,416.9219,884.5,412.9219" style="stroke:#181818;stroke-width:1.0;"/><line style="stroke:#181818;stroke-width:1.0;stroke-dasharray:2.0,2.0;" x1="458.5" x2="886.5" y1="412.9219" y2="412.9219"/><text fill="#000000" font-family="sans-serif" font-size="13" lengthAdjust="spacing" textLength="272" x="465.5" y="407.856">publish like_deleted(w/ comment id) event</text><polygon fill="#181818" points="641.5,438.0547,631.5,442.0547,641.5,446.0547,637.5,442.0547" style="stroke:#181818;stroke-width:1.0;"/><line style="stroke:#181818;stroke-width:1.0;stroke-dasharray:2.0,2.0;" x1="635.5" x2="891.5" y1="442.0547" y2="442.0547"/><text fill="#000000" font-family="sans-serif" font-size="13" lengthAdjust="spacing" textLength="185" x="647.5" y="436.9888">comsume like_deleted event</text><polygon fill="#181818" points="469.5,467.1875,459.5,471.1875,469.5,475.1875,465.5,471.1875" style="stroke:#181818;stroke-width:1.0;"/><line style="stroke:#181818;stroke-width:1.0;" x1="463.5" x2="629.5" y1="471.1875" y2="471.1875"/><text fill="#000000" font-family="sans-serif" font-size="13" lengthAdjust="spacing" textLength="102" x="475.5" y="466.1216">request like info</text><path d="M330.5,486.1875 L396.5,486.1875 L396.5,493.3203 L386.5,503.3203 L330.5,503.3203 L330.5,486.1875 " fill="#EEEEEE" style="stroke:#000000;stroke-width:1.5;"/><rect fill="none" height="88.3984" style="stroke:#000000;stroke-width:1.5;" width="503" x="330.5" y="486.1875"/><text fill="#000000" font-family="sans-serif" font-size="13" font-weight="bold" lengthAdjust="spacing" textLength="21" x="345.5" y="499.2544">alt</text><text fill="#000000" font-family="sans-serif" font-size="11" font-weight="bold" lengthAdjust="spacing" textLength="86" x="411.5" y="498.3979">[if not exist]</text><polygon fill="#181818" points="394.5,520.4531,384.5,524.4531,394.5,528.4531,390.5,524.4531" style="stroke:#181818;stroke-width:1.0;"/><line style="stroke:#181818;stroke-width:1.0;" x1="388.5" x2="629.5" y1="524.4531" y2="524.4531"/><text fill="#000000" font-family="sans-serif" font-size="13" lengthAdjust="spacing" textLength="176" x="400.5" y="519.3872">request comment author id</text><line style="stroke:#181818;stroke-width:1.0;" x1="630.5" x2="672.5" y1="553.5859" y2="553.5859"/><line style="stroke:#181818;stroke-width:1.0;" x1="672.5" x2="672.5" y1="553.5859" y2="566.5859"/><line style="stroke:#181818;stroke-width:1.0;" x1="631.5" x2="672.5" y1="566.5859" y2="566.5859"/><polygon fill="#181818" points="641.5,562.5859,631.5,566.5859,641.5,570.5859,637.5,566.5859" style="stroke:#181818;stroke-width:1.0;"/><text fill="#000000" font-family="sans-serif" font-size="13" lengthAdjust="spacing" textLength="184" x="637.5" y="548.52">insert/update user inbox info</text><!--SRC=[PL2xRiCm3Dpr5KIcP0Yo6qM7jWXGf4ENRWKAsQ9gmRRawj7ayqlAiWAZayGxaiUxQEA8iElSDA6DaEne1WGzkkjE2Db5v-4Ze0SP8D4hPkcZwSmigVdfV6QyrNe3FvTTH9Mr6_gD1OXZeGtnQbjtOyRmPqEzfz0pCzChVX8cX8lKWsHiu8yGV1qS7_cQPhKXwm64CbdA1heUkm6CXjZZYWBUJ8X1o34oOrr1bjKFnsKrUa-PU0opim45MhKkPyagxP7EfDbSL5BXY15pGIwr-xJx5yTAlR7VgwXsoQf3tagYos3LsznIqKM5P78O3UNKZeOYO_nh4LNxwwawDUe0-Cl1v84ycbDlk2Ma2JUZfJTttCqKYtSt_vEh4pNuTMYzHAROKvv6tNlB8OQC-NXAiv8KMVQzj6GfolqF]--></g></svg>