<?xml version="1.0" encoding="us-ascii" standalone="no"?><svg xmlns="http://www.w3.org/2000/svg" xmlns:xlink="http://www.w3.org/1999/xlink" contentStyleType="text/css" height="686px" preserveAspectRatio="none" style="width:1039px;height:686px;background:#FFFFFF;" version="1.1" viewBox="0 0 1039 686" width="1039px" zoomAndPan="magnify"><defs/><g><text fill="#000000" font-family="sans-serif" font-size="14" font-weight="bold" lengthAdjust="spacing" textLength="248" x="394" y="27.9951">add a comment on a post flow</text><rect fill="none" height="46.2656" style="stroke:#000000;stroke-width:1.5;" width="248.5" x="10" y="193.8594"/><rect fill="none" height="117.5313" style="stroke:#000000;stroke-width:1.5;" width="497.5" x="473.5" y="471.0547"/><line style="stroke:#181818;stroke-width:0.5;stroke-dasharray:5.0,5.0;" x1="38" x2="38" y1="118.5938" y2="605.5859"/><line style="stroke:#181818;stroke-width:0.5;stroke-dasharray:5.0,5.0;" x1="228.5" x2="228.5" y1="118.5938" y2="605.5859"/><line style="stroke:#181818;stroke-width:0.5;stroke-dasharray:5.0,5.0;" x1="395.5" x2="395.5" y1="118.5938" y2="605.5859"/><line style="stroke:#181818;stroke-width:0.5;stroke-dasharray:5.0,5.0;" x1="511.5" x2="511.5" y1="118.5938" y2="605.5859"/><line style="stroke:#181818;stroke-width:0.5;stroke-dasharray:5.0,5.0;" x1="677.5" x2="677.5" y1="118.5938" y2="605.5859"/><line style="stroke:#181818;stroke-width:0.5;stroke-dasharray:5.0,5.0;" x1="937" x2="937" y1="118.5938" y2="605.5859"/><line style="stroke:#181818;stroke-width:0.5;stroke-dasharray:5.0,5.0;" x1="1001" x2="1001" y1="118.5938" y2="605.5859"/><text fill="#000000" font-family="sans-serif" font-size="14" lengthAdjust="spacing" textLength="31" x="20" y="115.292">User</text><ellipse cx="38.5" cy="50.7969" fill="#E2E2F0" rx="8" ry="8" style="stroke:#181818;stroke-width:0.5;"/><path d="M38.5,58.7969 L38.5,85.7969 M25.5,66.7969 L51.5,66.7969 M38.5,85.7969 L25.5,100.7969 M38.5,85.7969 L51.5,100.7969 " fill="none" style="stroke:#181818;stroke-width:0.5;"/><text fill="#000000" font-family="sans-serif" font-size="14" lengthAdjust="spacing" textLength="31" x="20" y="617.5811">User</text><ellipse cx="38.5" cy="629.3828" fill="#E2E2F0" rx="8" ry="8" style="stroke:#181818;stroke-width:0.5;"/><path d="M38.5,637.3828 L38.5,664.3828 M25.5,645.3828 L51.5,645.3828 M38.5,664.3828 L25.5,679.3828 M38.5,664.3828 L51.5,679.3828 " fill="none" style="stroke:#181818;stroke-width:0.5;"/><rect fill="#E2E2F0" height="30.2969" rx="2.5" ry="2.5" style="stroke:#181818;stroke-width:0.5;" width="40" x="208.5" y="87.2969"/><text fill="#000000" font-family="sans-serif" font-size="14" lengthAdjust="spacing" textLength="26" x="215.5" y="107.292">BFF</text><rect fill="#E2E2F0" height="30.2969" rx="2.5" ry="2.5" style="stroke:#181818;stroke-width:0.5;" width="40" x="208.5" y="604.5859"/><text fill="#000000" font-family="sans-serif" font-size="14" lengthAdjust="spacing" textLength="26" x="215.5" y="624.5811">BFF</text><rect fill="#E2E2F0" height="30.2969" rx="2.5" ry="2.5" style="stroke:#181818;stroke-width:0.5;" width="86" x="352.5" y="87.2969"/><text fill="#000000" font-family="sans-serif" font-size="14" lengthAdjust="spacing" textLength="72" x="359.5" y="107.292">Comment</text><rect fill="#E2E2F0" height="30.2969" rx="2.5" ry="2.5" style="stroke:#181818;stroke-width:0.5;" width="86" x="352.5" y="604.5859"/><text fill="#000000" font-family="sans-serif" font-size="14" lengthAdjust="spacing" textLength="72" x="359.5" y="624.5811">Comment</text><rect fill="#E2E2F0" height="30.2969" rx="2.5" ry="2.5" style="stroke:#181818;stroke-width:0.5;" width="56" x="483.5" y="87.2969"/><text fill="#000000" font-family="sans-serif" font-size="14" lengthAdjust="spacing" textLength="42" x="490.5" y="107.292">Media</text><rect fill="#E2E2F0" height="30.2969" rx="2.5" ry="2.5" style="stroke:#181818;stroke-width:0.5;" width="56" x="483.5" y="604.5859"/><text fill="#000000" font-family="sans-serif" font-size="14" lengthAdjust="spacing" textLength="42" x="490.5" y="624.5811">Media</text><rect fill="#E2E2F0" height="30.2969" rx="2.5" ry="2.5" style="stroke:#181818;stroke-width:0.5;" width="54" x="650.5" y="87.2969"/><text fill="#000000" font-family="sans-serif" font-size="14" lengthAdjust="spacing" textLength="40" x="657.5" y="107.292">Inbox</text><rect fill="#E2E2F0" height="30.2969" rx="2.5" ry="2.5" style="stroke:#181818;stroke-width:0.5;" width="54" x="650.5" y="604.5859"/><text fill="#000000" font-family="sans-serif" font-size="14" lengthAdjust="spacing" textLength="40" x="657.5" y="624.5811">Inbox</text><rect fill="#E2E2F0" height="30.2969" rx="2.5" ry="2.5" style="stroke:#181818;stroke-width:0.5;" width="47" x="914" y="87.2969"/><text fill="#000000" font-family="sans-serif" font-size="14" lengthAdjust="spacing" textLength="33" x="921" y="107.292">Push</text><rect fill="#E2E2F0" height="30.2969" rx="2.5" ry="2.5" style="stroke:#181818;stroke-width:0.5;" width="47" x="914" y="604.5859"/><text fill="#000000" font-family="sans-serif" font-size="14" lengthAdjust="spacing" textLength="33" x="921" y="624.5811">Push</text><path d="M976,92.2969 L1027,92.2969 C1032,92.2969 1032,105.4453 1032,105.4453 C1032,105.4453 1032,118.5938 1027,118.5938 L976,118.5938 C971,118.5938 971,105.4453 971,105.4453 C971,105.4453 971,92.2969 976,92.2969 " fill="#E2E2F0" style="stroke:#181818;stroke-width:0.5;"/><path d="M1027,92.2969 C1022,92.2969 1022,105.4453 1022,105.4453 C1022,118.5938 1027,118.5938 1027,118.5938 " fill="none" style="stroke:#181818;stroke-width:0.5;"/><text fill="#000000" font-family="sans-serif" font-size="14" lengthAdjust="spacing" textLength="41" x="976" y="110.292">Kafka</text><path d="M976,604.5859 L1027,604.5859 C1032,604.5859 1032,617.7344 1032,617.7344 C1032,617.7344 1032,630.8828 1027,630.8828 L976,630.8828 C971,630.8828 971,617.7344 971,617.7344 C971,617.7344 971,604.5859 976,604.5859 " fill="#E2E2F0" style="stroke:#181818;stroke-width:0.5;"/><path d="M1027,604.5859 C1022,604.5859 1022,617.7344 1022,617.7344 C1022,630.8828 1027,630.8828 1027,630.8828 " fill="none" style="stroke:#181818;stroke-width:0.5;"/><text fill="#000000" font-family="sans-serif" font-size="14" lengthAdjust="spacing" textLength="41" x="976" y="622.5811">Kafka</text><polygon fill="#181818" points="216.5,145.7266,226.5,149.7266,216.5,153.7266,220.5,149.7266" style="stroke:#181818;stroke-width:1.0;"/><line style="stroke:#181818;stroke-width:1.0;" x1="38.5" x2="222.5" y1="149.7266" y2="149.7266"/><text fill="#000000" font-family="sans-serif" font-size="13" lengthAdjust="spacing" textLength="166" x="45.5" y="144.6606">add a comment on a post</text><polygon fill="#181818" points="499.5,174.8594,509.5,178.8594,499.5,182.8594,503.5,178.8594" style="stroke:#181818;stroke-width:1.0;"/><line style="stroke:#181818;stroke-width:1.0;" x1="228.5" x2="505.5" y1="178.8594" y2="178.8594"/><text fill="#000000" font-family="sans-serif" font-size="13" lengthAdjust="spacing" textLength="148" x="235.5" y="173.7935">check if the post exists</text><path d="M10,193.8594 L76,193.8594 L76,200.9922 L66,210.9922 L10,210.9922 L10,193.8594 " fill="#EEEEEE" style="stroke:#000000;stroke-width:1.5;"/><rect fill="none" height="46.2656" style="stroke:#000000;stroke-width:1.5;" width="248.5" x="10" y="193.8594"/><text fill="#000000" font-family="sans-serif" font-size="13" font-weight="bold" lengthAdjust="spacing" textLength="21" x="25" y="206.9263">alt</text><text fill="#000000" font-family="sans-serif" font-size="11" font-weight="bold" lengthAdjust="spacing" textLength="86" x="91" y="206.0698">[if not exist]</text><polygon fill="#181818" points="49.5,228.125,39.5,232.125,49.5,236.125,45.5,232.125" style="stroke:#181818;stroke-width:1.0;"/><line style="stroke:#181818;stroke-width:1.0;" x1="43.5" x2="227.5" y1="232.125" y2="232.125"/><text fill="#000000" font-family="sans-serif" font-size="13" lengthAdjust="spacing" textLength="94" x="55.5" y="227.0591">error response</text><polygon fill="#181818" points="383.5,264.2578,393.5,268.2578,383.5,272.2578,387.5,268.2578" style="stroke:#181818;stroke-width:1.0;"/><line style="stroke:#181818;stroke-width:1.0;" x1="228.5" x2="389.5" y1="268.2578" y2="268.2578"/><text fill="#000000" font-family="sans-serif" font-size="13" lengthAdjust="spacing" textLength="143" x="235.5" y="263.1919">comment add request</text><line style="stroke:#181818;stroke-width:1.0;" x1="395.5" x2="437.5" y1="297.3906" y2="297.3906"/><line style="stroke:#181818;stroke-width:1.0;" x1="437.5" x2="437.5" y1="297.3906" y2="310.3906"/><line style="stroke:#181818;stroke-width:1.0;" x1="396.5" x2="437.5" y1="310.3906" y2="310.3906"/><polygon fill="#181818" points="406.5,306.3906,396.5,310.3906,406.5,314.3906,402.5,310.3906" style="stroke:#181818;stroke-width:1.0;"/><text fill="#000000" font-family="sans-serif" font-size="13" lengthAdjust="spacing" textLength="102" x="402.5" y="292.3247">insert comment</text><polygon fill="#181818" points="239.5,335.5234,229.5,339.5234,239.5,343.5234,235.5,339.5234" style="stroke:#181818;stroke-width:1.0;"/><line style="stroke:#181818;stroke-width:1.0;" x1="233.5" x2="394.5" y1="339.5234" y2="339.5234"/><text fill="#000000" font-family="sans-serif" font-size="13" lengthAdjust="spacing" textLength="59" x="245.5" y="334.4575">response</text><polygon fill="#181818" points="49.5,364.6563,39.5,368.6563,49.5,372.6563,45.5,368.6563" style="stroke:#181818;stroke-width:1.0;"/><line style="stroke:#181818;stroke-width:1.0;" x1="43.5" x2="227.5" y1="368.6563" y2="368.6563"/><text fill="#000000" font-family="sans-serif" font-size="13" lengthAdjust="spacing" textLength="59" x="55.5" y="363.5903">response</text><polygon fill="#181818" points="989.5,393.7891,999.5,397.7891,989.5,401.7891,993.5,397.7891" style="stroke:#181818;stroke-width:1.0;"/><line style="stroke:#181818;stroke-width:1.0;stroke-dasharray:2.0,2.0;" x1="395.5" x2="995.5" y1="397.7891" y2="397.7891"/><text fill="#000000" font-family="sans-serif" font-size="13" lengthAdjust="spacing" textLength="208" x="402.5" y="392.7231">publish comment_created event</text><polygon fill="#181818" points="688.5,422.9219,678.5,426.9219,688.5,430.9219,684.5,426.9219" style="stroke:#181818;stroke-width:1.0;"/><line style="stroke:#181818;stroke-width:1.0;stroke-dasharray:2.0,2.0;" x1="682.5" x2="1000.5" y1="426.9219" y2="426.9219"/><text fill="#000000" font-family="sans-serif" font-size="13" lengthAdjust="spacing" textLength="227" x="694.5" y="421.856">comsume comment_created event</text><polygon fill="#181818" points="406.5,452.0547,396.5,456.0547,406.5,460.0547,402.5,456.0547" style="stroke:#181818;stroke-width:1.0;"/><line style="stroke:#181818;stroke-width:1.0;" x1="400.5" x2="676.5" y1="456.0547" y2="456.0547"/><text fill="#000000" font-family="sans-serif" font-size="13" lengthAdjust="spacing" textLength="143" x="412.5" y="450.9888">request comment info</text><path d="M473.5,471.0547 L539.5,471.0547 L539.5,478.1875 L529.5,488.1875 L473.5,488.1875 L473.5,471.0547 " fill="#EEEEEE" style="stroke:#000000;stroke-width:1.5;"/><rect fill="none" height="117.5313" style="stroke:#000000;stroke-width:1.5;" width="497.5" x="473.5" y="471.0547"/><text fill="#000000" font-family="sans-serif" font-size="13" font-weight="bold" lengthAdjust="spacing" textLength="21" x="488.5" y="484.1216">alt</text><text fill="#000000" font-family="sans-serif" font-size="11" font-weight="bold" lengthAdjust="spacing" textLength="65" x="554.5" y="483.2651">[if exists]</text><polygon fill="#181818" points="522.5,505.3203,512.5,509.3203,522.5,513.3203,518.5,509.3203" style="stroke:#181818;stroke-width:1.0;"/><line style="stroke:#181818;stroke-width:1.0;" x1="516.5" x2="676.5" y1="509.3203" y2="509.3203"/><text fill="#000000" font-family="sans-serif" font-size="13" lengthAdjust="spacing" textLength="142" x="528.5" y="504.2544">request post author id</text><line style="stroke:#181818;stroke-width:1.0;" x1="677.5" x2="719.5" y1="538.4531" y2="538.4531"/><line style="stroke:#181818;stroke-width:1.0;" x1="719.5" x2="719.5" y1="538.4531" y2="551.4531"/><line style="stroke:#181818;stroke-width:1.0;" x1="678.5" x2="719.5" y1="551.4531" y2="551.4531"/><polygon fill="#181818" points="688.5,547.4531,678.5,551.4531,688.5,555.4531,684.5,551.4531" style="stroke:#181818;stroke-width:1.0;"/><text fill="#000000" font-family="sans-serif" font-size="13" lengthAdjust="spacing" textLength="184" x="684.5" y="533.3872">insert/update user inbox info</text><polygon fill="#181818" points="925.5,576.5859,935.5,580.5859,925.5,584.5859,929.5,580.5859" style="stroke:#181818;stroke-width:1.0;"/><line style="stroke:#181818;stroke-width:1.0;" x1="677.5" x2="931.5" y1="580.5859" y2="580.5859"/><text fill="#000000" font-family="sans-serif" font-size="13" lengthAdjust="spacing" textLength="236" x="684.5" y="575.52">request push notification reservation</text><!--SRC=[TLAxRiCm3Dpr5KJteBjHT6Y104LHe4ldGf4ec8WjkNga-VoIigp6GoRJlDFnU5AcF24yQ6j1WmdpZ3v3yFopX9J1JU7tGIbjSeZmbJ22Jb3ugnOTCnbQDFDVZaVfdvpRjL-R74DDUGT_e2Kju2p53dhpft0LYAJOGPybZO8i_5K_1Gl2ktRdAdIMGYdn1uTdyJF0dSqKWyAfimSm8vepa8CyuhevNYdbfFIKfUr3wwpYJuTL76FaN2Ac9VY42htTTDl0eKyM7n7PC6jilLiUiK3CFIYHuIaTxZDsytktAx9aJM7WW4uJSLOD-ZOHTKOBU17zIghq6d7rcSgCT-YLjFFRTkdxaNTXIwjbrm-raBSZDLzTyiZPaVsdDITh4ezbiMoWFhOLMKTqjZo06qrv5dnBvCZeJ7pFd0t6IwtbOlu0]--></g></svg>