<?xml version="1.0" encoding="us-ascii" standalone="no"?><svg xmlns="http://www.w3.org/2000/svg" xmlns:xlink="http://www.w3.org/1999/xlink" contentStyleType="text/css" height="701px" preserveAspectRatio="none" style="width:1004px;height:701px;background:#FFFFFF;" version="1.1" viewBox="0 0 1004 701" width="1004px" zoomAndPan="magnify"><defs/><g><text fill="#000000" font-family="sans-serif" font-size="14" font-weight="bold" lengthAdjust="spacing" textLength="149" x="426" y="27.9951">comment like flow</text><rect fill="none" height="46.2656" style="stroke:#000000;stroke-width:1.5;" width="181.5" x="10" y="193.8594"/><rect fill="none" height="117.5313" style="stroke:#000000;stroke-width:1.5;" width="621.5" x="314.5" y="486.1875"/><line style="stroke:#181818;stroke-width:0.5;stroke-dasharray:5.0,5.0;" x1="38" x2="38" y1="118.5938" y2="620.7188"/><line style="stroke:#181818;stroke-width:0.5;stroke-dasharray:5.0,5.0;" x1="161.5" x2="161.5" y1="118.5938" y2="620.7188"/><line style="stroke:#181818;stroke-width:0.5;stroke-dasharray:5.0,5.0;" x1="367.5" x2="367.5" y1="118.5938" y2="620.7188"/><line style="stroke:#181818;stroke-width:0.5;stroke-dasharray:5.0,5.0;" x1="442.5" x2="442.5" y1="118.5938" y2="620.7188"/><line style="stroke:#181818;stroke-width:0.5;stroke-dasharray:5.0,5.0;" x1="642.5" x2="642.5" y1="118.5938" y2="620.7188"/><line style="stroke:#181818;stroke-width:0.5;stroke-dasharray:5.0,5.0;" x1="902" x2="902" y1="118.5938" y2="620.7188"/><line style="stroke:#181818;stroke-width:0.5;stroke-dasharray:5.0,5.0;" x1="966" x2="966" y1="118.5938" y2="620.7188"/><text fill="#000000" font-family="sans-serif" font-size="14" lengthAdjust="spacing" textLength="31" x="20" y="115.292">User</text><ellipse cx="38.5" cy="50.7969" fill="#E2E2F0" rx="8" ry="8" style="stroke:#181818;stroke-width:0.5;"/><path d="M38.5,58.7969 L38.5,85.7969 M25.5,66.7969 L51.5,66.7969 M38.5,85.7969 L25.5,100.7969 M38.5,85.7969 L51.5,100.7969 " fill="none" style="stroke:#181818;stroke-width:0.5;"/><text fill="#000000" font-family="sans-serif" font-size="14" lengthAdjust="spacing" textLength="31" x="20" y="632.7139">User</text><ellipse cx="38.5" cy="644.5156" fill="#E2E2F0" rx="8" ry="8" style="stroke:#181818;stroke-width:0.5;"/><path d="M38.5,652.5156 L38.5,679.5156 M25.5,660.5156 L51.5,660.5156 M38.5,679.5156 L25.5,694.5156 M38.5,679.5156 L51.5,694.5156 " fill="none" style="stroke:#181818;stroke-width:0.5;"/><rect fill="#E2E2F0" height="30.2969" rx="2.5" ry="2.5" style="stroke:#181818;stroke-width:0.5;" width="40" x="141.5" y="87.2969"/><text fill="#000000" font-family="sans-serif" font-size="14" lengthAdjust="spacing" textLength="26" x="148.5" y="107.292">BFF</text><rect fill="#E2E2F0" height="30.2969" rx="2.5" ry="2.5" style="stroke:#181818;stroke-width:0.5;" width="40" x="141.5" y="619.7188"/><text fill="#000000" font-family="sans-serif" font-size="14" lengthAdjust="spacing" textLength="26" x="148.5" y="639.7139">BFF</text><rect fill="#E2E2F0" height="30.2969" rx="2.5" ry="2.5" style="stroke:#181818;stroke-width:0.5;" width="86" x="324.5" y="87.2969"/><text fill="#000000" font-family="sans-serif" font-size="14" lengthAdjust="spacing" textLength="72" x="331.5" y="107.292">Comment</text><rect fill="#E2E2F0" height="30.2969" rx="2.5" ry="2.5" style="stroke:#181818;stroke-width:0.5;" width="86" x="324.5" y="619.7188"/><text fill="#000000" font-family="sans-serif" font-size="14" lengthAdjust="spacing" textLength="72" x="331.5" y="639.7139">Comment</text><rect fill="#E2E2F0" height="30.2969" rx="2.5" ry="2.5" style="stroke:#181818;stroke-width:0.5;" width="44" x="420.5" y="87.2969"/><text fill="#000000" font-family="sans-serif" font-size="14" lengthAdjust="spacing" textLength="30" x="427.5" y="107.292">Like</text><rect fill="#E2E2F0" height="30.2969" rx="2.5" ry="2.5" style="stroke:#181818;stroke-width:0.5;" width="44" x="420.5" y="619.7188"/><text fill="#000000" font-family="sans-serif" font-size="14" lengthAdjust="spacing" textLength="30" x="427.5" y="639.7139">Like</text><rect fill="#E2E2F0" height="30.2969" rx="2.5" ry="2.5" style="stroke:#181818;stroke-width:0.5;" width="54" x="615.5" y="87.2969"/><text fill="#000000" font-family="sans-serif" font-size="14" lengthAdjust="spacing" textLength="40" x="622.5" y="107.292">Inbox</text><rect fill="#E2E2F0" height="30.2969" rx="2.5" ry="2.5" style="stroke:#181818;stroke-width:0.5;" width="54" x="615.5" y="619.7188"/><text fill="#000000" font-family="sans-serif" font-size="14" lengthAdjust="spacing" textLength="40" x="622.5" y="639.7139">Inbox</text><rect fill="#E2E2F0" height="30.2969" rx="2.5" ry="2.5" style="stroke:#181818;stroke-width:0.5;" width="47" x="879" y="87.2969"/><text fill="#000000" font-family="sans-serif" font-size="14" lengthAdjust="spacing" textLength="33" x="886" y="107.292">Push</text><rect fill="#E2E2F0" height="30.2969" rx="2.5" ry="2.5" style="stroke:#181818;stroke-width:0.5;" width="47" x="879" y="619.7188"/><text fill="#000000" font-family="sans-serif" font-size="14" lengthAdjust="spacing" textLength="33" x="886" y="639.7139">Push</text><path d="M941,92.2969 L992,92.2969 C997,92.2969 997,105.4453 997,105.4453 C997,105.4453 997,118.5938 992,118.5938 L941,118.5938 C936,118.5938 936,105.4453 936,105.4453 C936,105.4453 936,92.2969 941,92.2969 " fill="#E2E2F0" style="stroke:#181818;stroke-width:0.5;"/><path d="M992,92.2969 C987,92.2969 987,105.4453 987,105.4453 C987,118.5938 992,118.5938 992,118.5938 " fill="none" style="stroke:#181818;stroke-width:0.5;"/><text fill="#000000" font-family="sans-serif" font-size="14" lengthAdjust="spacing" textLength="41" x="941" y="110.292">Kafka</text><path d="M941,619.7188 L992,619.7188 C997,619.7188 997,632.8672 997,632.8672 C997,632.8672 997,646.0156 992,646.0156 L941,646.0156 C936,646.0156 936,632.8672 936,632.8672 C936,632.8672 936,619.7188 941,619.7188 " fill="#E2E2F0" style="stroke:#181818;stroke-width:0.5;"/><path d="M992,619.7188 C987,619.7188 987,632.8672 987,632.8672 C987,646.0156 992,646.0156 992,646.0156 " fill="none" style="stroke:#181818;stroke-width:0.5;"/><text fill="#000000" font-family="sans-serif" font-size="14" lengthAdjust="spacing" textLength="41" x="941" y="637.7139">Kafka</text><polygon fill="#181818" points="149.5,145.7266,159.5,149.7266,149.5,153.7266,153.5,149.7266" style="stroke:#181818;stroke-width:1.0;"/><line style="stroke:#181818;stroke-width:1.0;" x1="38.5" x2="155.5" y1="149.7266" y2="149.7266"/><text fill="#000000" font-family="sans-serif" font-size="13" lengthAdjust="spacing" textLength="99" x="45.5" y="144.6606">like a comment</text><polygon fill="#181818" points="355.5,174.8594,365.5,178.8594,355.5,182.8594,359.5,178.8594" style="stroke:#181818;stroke-width:1.0;"/><line style="stroke:#181818;stroke-width:1.0;" x1="161.5" x2="361.5" y1="178.8594" y2="178.8594"/><text fill="#000000" font-family="sans-serif" font-size="13" lengthAdjust="spacing" textLength="182" x="168.5" y="173.7935">check if the comment exists</text><path d="M10,193.8594 L76,193.8594 L76,200.9922 L66,210.9922 L10,210.9922 L10,193.8594 " fill="#EEEEEE" style="stroke:#000000;stroke-width:1.5;"/><rect fill="none" height="46.2656" style="stroke:#000000;stroke-width:1.5;" width="181.5" x="10" y="193.8594"/><text fill="#000000" font-family="sans-serif" font-size="13" font-weight="bold" lengthAdjust="spacing" textLength="21" x="25" y="206.9263">alt</text><text fill="#000000" font-family="sans-serif" font-size="11" font-weight="bold" lengthAdjust="spacing" textLength="86" x="91" y="206.0698">[if not exist]</text><polygon fill="#181818" points="49.5,228.125,39.5,232.125,49.5,236.125,45.5,232.125" style="stroke:#181818;stroke-width:1.0;"/><line style="stroke:#181818;stroke-width:1.0;" x1="43.5" x2="160.5" y1="232.125" y2="232.125"/><text fill="#000000" font-family="sans-serif" font-size="13" lengthAdjust="spacing" textLength="94" x="55.5" y="227.0591">error response</text><polygon fill="#181818" points="430.5,264.2578,440.5,268.2578,430.5,272.2578,434.5,268.2578" style="stroke:#181818;stroke-width:1.0;"/><line style="stroke:#181818;stroke-width:1.0;" x1="161.5" x2="436.5" y1="268.2578" y2="268.2578"/><text fill="#000000" font-family="sans-serif" font-size="13" lengthAdjust="spacing" textLength="74" x="168.5" y="263.1919">like request</text><line style="stroke:#181818;stroke-width:1.0;" x1="442.5" x2="484.5" y1="312.5234" y2="312.5234"/><line style="stroke:#181818;stroke-width:1.0;" x1="484.5" x2="484.5" y1="312.5234" y2="325.5234"/><line style="stroke:#181818;stroke-width:1.0;" x1="443.5" x2="484.5" y1="325.5234" y2="325.5234"/><polygon fill="#181818" points="453.5,321.5234,443.5,325.5234,453.5,329.5234,449.5,325.5234" style="stroke:#181818;stroke-width:1.0;"/><text fill="#000000" font-family="sans-serif" font-size="13" lengthAdjust="spacing" textLength="89" x="449.5" y="292.3247">insert like info</text><text fill="#000000" font-family="sans-serif" font-size="13" lengthAdjust="spacing" textLength="186" x="449.5" y="307.4575">(Do nothing if already exists)</text><polygon fill="#181818" points="172.5,350.6563,162.5,354.6563,172.5,358.6563,168.5,354.6563" style="stroke:#181818;stroke-width:1.0;"/><line style="stroke:#181818;stroke-width:1.0;" x1="166.5" x2="441.5" y1="354.6563" y2="354.6563"/><text fill="#000000" font-family="sans-serif" font-size="13" lengthAdjust="spacing" textLength="59" x="178.5" y="349.5903">response</text><polygon fill="#181818" points="49.5,379.7891,39.5,383.7891,49.5,387.7891,45.5,383.7891" style="stroke:#181818;stroke-width:1.0;"/><line style="stroke:#181818;stroke-width:1.0;" x1="43.5" x2="160.5" y1="383.7891" y2="383.7891"/><text fill="#000000" font-family="sans-serif" font-size="13" lengthAdjust="spacing" textLength="59" x="55.5" y="378.7231">response</text><polygon fill="#181818" points="954.5,408.9219,964.5,412.9219,954.5,416.9219,958.5,412.9219" style="stroke:#181818;stroke-width:1.0;"/><line style="stroke:#181818;stroke-width:1.0;stroke-dasharray:2.0,2.0;" x1="442.5" x2="960.5" y1="412.9219" y2="412.9219"/><text fill="#000000" font-family="sans-serif" font-size="13" lengthAdjust="spacing" textLength="167" x="449.5" y="407.856">publish like_created event</text><polygon fill="#181818" points="653.5,438.0547,643.5,442.0547,653.5,446.0547,649.5,442.0547" style="stroke:#181818;stroke-width:1.0;"/><line style="stroke:#181818;stroke-width:1.0;stroke-dasharray:2.0,2.0;" x1="647.5" x2="965.5" y1="442.0547" y2="442.0547"/><text fill="#000000" font-family="sans-serif" font-size="13" lengthAdjust="spacing" textLength="186" x="659.5" y="436.9888">comsume like_created event</text><polygon fill="#181818" points="453.5,467.1875,443.5,471.1875,453.5,475.1875,449.5,471.1875" style="stroke:#181818;stroke-width:1.0;"/><line style="stroke:#181818;stroke-width:1.0;" x1="447.5" x2="641.5" y1="471.1875" y2="471.1875"/><text fill="#000000" font-family="sans-serif" font-size="13" lengthAdjust="spacing" textLength="102" x="459.5" y="466.1216">request like info</text><path d="M314.5,486.1875 L380.5,486.1875 L380.5,493.3203 L370.5,503.3203 L314.5,503.3203 L314.5,486.1875 " fill="#EEEEEE" style="stroke:#000000;stroke-width:1.5;"/><rect fill="none" height="117.5313" style="stroke:#000000;stroke-width:1.5;" width="621.5" x="314.5" y="486.1875"/><text fill="#000000" font-family="sans-serif" font-size="13" font-weight="bold" lengthAdjust="spacing" textLength="21" x="329.5" y="499.2544">alt</text><text fill="#000000" font-family="sans-serif" font-size="11" font-weight="bold" lengthAdjust="spacing" textLength="65" x="395.5" y="498.3979">[if exists]</text><polygon fill="#181818" points="378.5,520.4531,368.5,524.4531,378.5,528.4531,374.5,524.4531" style="stroke:#181818;stroke-width:1.0;"/><line style="stroke:#181818;stroke-width:1.0;" x1="372.5" x2="641.5" y1="524.4531" y2="524.4531"/><text fill="#000000" font-family="sans-serif" font-size="13" lengthAdjust="spacing" textLength="176" x="384.5" y="519.3872">request comment author id</text><line style="stroke:#181818;stroke-width:1.0;" x1="642.5" x2="684.5" y1="553.5859" y2="553.5859"/><line style="stroke:#181818;stroke-width:1.0;" x1="684.5" x2="684.5" y1="553.5859" y2="566.5859"/><line style="stroke:#181818;stroke-width:1.0;" x1="643.5" x2="684.5" y1="566.5859" y2="566.5859"/><polygon fill="#181818" points="653.5,562.5859,643.5,566.5859,653.5,570.5859,649.5,566.5859" style="stroke:#181818;stroke-width:1.0;"/><text fill="#000000" font-family="sans-serif" font-size="13" lengthAdjust="spacing" textLength="184" x="649.5" y="548.52">insert/update user inbox info</text><polygon fill="#181818" points="890.5,591.7188,900.5,595.7188,890.5,599.7188,894.5,595.7188" style="stroke:#181818;stroke-width:1.0;"/><line style="stroke:#181818;stroke-width:1.0;" x1="642.5" x2="896.5" y1="595.7188" y2="595.7188"/><text fill="#000000" font-family="sans-serif" font-size="13" lengthAdjust="spacing" textLength="236" x="649.5" y="590.6528">request push notification reservation</text><!--SRC=[RLAxJiGm4Epz5TPLK9pe8qG1w2Hq53HqICZdhCagEJluSHn_pwxjE8f45NjcTsPtueXn0hdJxdm66-M48qWpkP-T44f7v-Lx02zLa8c-ObO-eiPPKUdZuS3uoPWD_5ILYAgY6_gL3OXZemtnOa_koWpoOKEzfJ0mCzDNV2T888_AZ8gnaGz2y7Ho_y3JT6K9rUm9OwfUEwa7qAD48-C02ohXYY46eQR8Z7KLASBt-o8CtbCY7iBiR001jb_4sR8QUw0HgJDV6eNKu6k-Q8txi3VFZdq6j5zigIOFgl-jWzncOV8jtSroCqv3YnLvvJGw2keq8MN6-ASctGYzX0k7aIjoRSwvum12EiD_jRbYNQ4kjkwmf5MpQ-KjwQLZ2LcbE520sA-rTOeIprsQU_BFRwqmnQTLymjOPVd64Q91hI8wouc0l-Gp_vq_]--></g></svg>