<?xml version="1.0" encoding="us-ascii" standalone="no"?><svg xmlns="http://www.w3.org/2000/svg" xmlns:xlink="http://www.w3.org/1999/xlink" contentStyleType="text/css" height="833px" preserveAspectRatio="none" style="width:1334px;height:833px;background:#FFFFFF;" version="1.1" viewBox="0 0 1334 833" width="1334px" zoomAndPan="magnify"><defs/><g><text fill="#000000" font-family="sans-serif" font-size="14" font-weight="bold" lengthAdjust="spacing" textLength="268" x="531.75" y="27.9951">delete a comment on a post flow</text><rect fill="none" height="46.2656" style="stroke:#000000;stroke-width:1.5;" width="264.5" x="10" y="193.8594"/><rect fill="none" height="75.3984" style="stroke:#000000;stroke-width:1.5;" width="470.5" x="10" y="340.5234"/><rect fill="none" height="88.3984" style="stroke:#000000;stroke-width:1.5;" width="411" x="590.5" y="575.5859"/><line style="stroke:#181818;stroke-width:0.5;stroke-dasharray:5.0,5.0;" x1="38" x2="38" y1="118.5938" y2="752.25"/><line style="stroke:#181818;stroke-width:0.5;stroke-dasharray:5.0,5.0;" x1="244.5" x2="244.5" y1="118.5938" y2="752.25"/><line style="stroke:#181818;stroke-width:0.5;stroke-dasharray:5.0,5.0;" x1="427.5" x2="427.5" y1="118.5938" y2="752.25"/><line style="stroke:#181818;stroke-width:0.5;stroke-dasharray:5.0,5.0;" x1="628.5" x2="628.5" y1="118.5938" y2="752.25"/><line style="stroke:#181818;stroke-width:0.5;stroke-dasharray:5.0,5.0;" x1="794.5" x2="794.5" y1="118.5938" y2="752.25"/><line style="stroke:#181818;stroke-width:0.5;stroke-dasharray:5.0,5.0;" x1="996" x2="996" y1="118.5938" y2="752.25"/><line style="stroke:#181818;stroke-width:0.5;stroke-dasharray:5.0,5.0;" x1="1052" x2="1052" y1="118.5938" y2="752.25"/><line style="stroke:#181818;stroke-width:0.5;stroke-dasharray:5.0,5.0;" x1="1296.5" x2="1296.5" y1="118.5938" y2="752.25"/><text fill="#000000" font-family="sans-serif" font-size="14" lengthAdjust="spacing" textLength="31" x="20" y="115.292">User</text><ellipse cx="38.5" cy="50.7969" fill="#E2E2F0" rx="8" ry="8" style="stroke:#181818;stroke-width:0.5;"/><path d="M38.5,58.7969 L38.5,85.7969 M25.5,66.7969 L51.5,66.7969 M38.5,85.7969 L25.5,100.7969 M38.5,85.7969 L51.5,100.7969 " fill="none" style="stroke:#181818;stroke-width:0.5;"/><text fill="#000000" font-family="sans-serif" font-size="14" lengthAdjust="spacing" textLength="31" x="20" y="764.2451">User</text><ellipse cx="38.5" cy="776.0469" fill="#E2E2F0" rx="8" ry="8" style="stroke:#181818;stroke-width:0.5;"/><path d="M38.5,784.0469 L38.5,811.0469 M25.5,792.0469 L51.5,792.0469 M38.5,811.0469 L25.5,826.0469 M38.5,811.0469 L51.5,826.0469 " fill="none" style="stroke:#181818;stroke-width:0.5;"/><rect fill="#E2E2F0" height="30.2969" rx="2.5" ry="2.5" style="stroke:#181818;stroke-width:0.5;" width="40" x="224.5" y="87.2969"/><text fill="#000000" font-family="sans-serif" font-size="14" lengthAdjust="spacing" textLength="26" x="231.5" y="107.292">BFF</text><rect fill="#E2E2F0" height="30.2969" rx="2.5" ry="2.5" style="stroke:#181818;stroke-width:0.5;" width="40" x="224.5" y="751.25"/><text fill="#000000" font-family="sans-serif" font-size="14" lengthAdjust="spacing" textLength="26" x="231.5" y="771.2451">BFF</text><rect fill="#E2E2F0" height="30.2969" rx="2.5" ry="2.5" style="stroke:#181818;stroke-width:0.5;" width="86" x="384.5" y="87.2969"/><text fill="#000000" font-family="sans-serif" font-size="14" lengthAdjust="spacing" textLength="72" x="391.5" y="107.292">Comment</text><rect fill="#E2E2F0" height="30.2969" rx="2.5" ry="2.5" style="stroke:#181818;stroke-width:0.5;" width="86" x="384.5" y="751.25"/><text fill="#000000" font-family="sans-serif" font-size="14" lengthAdjust="spacing" textLength="72" x="391.5" y="771.2451">Comment</text><rect fill="#E2E2F0" height="30.2969" rx="2.5" ry="2.5" style="stroke:#181818;stroke-width:0.5;" width="56" x="600.5" y="87.2969"/><text fill="#000000" font-family="sans-serif" font-size="14" lengthAdjust="spacing" textLength="42" x="607.5" y="107.292">Media</text><rect fill="#E2E2F0" height="30.2969" rx="2.5" ry="2.5" style="stroke:#181818;stroke-width:0.5;" width="56" x="600.5" y="751.25"/><text fill="#000000" font-family="sans-serif" font-size="14" lengthAdjust="spacing" textLength="42" x="607.5" y="771.2451">Media</text><rect fill="#E2E2F0" height="30.2969" rx="2.5" ry="2.5" style="stroke:#181818;stroke-width:0.5;" width="54" x="767.5" y="87.2969"/><text fill="#000000" font-family="sans-serif" font-size="14" lengthAdjust="spacing" textLength="40" x="774.5" y="107.292">Inbox</text><rect fill="#E2E2F0" height="30.2969" rx="2.5" ry="2.5" style="stroke:#181818;stroke-width:0.5;" width="54" x="767.5" y="751.25"/><text fill="#000000" font-family="sans-serif" font-size="14" lengthAdjust="spacing" textLength="40" x="774.5" y="771.2451">Inbox</text><rect fill="#E2E2F0" height="30.2969" rx="2.5" ry="2.5" style="stroke:#181818;stroke-width:0.5;" width="47" x="973" y="87.2969"/><text fill="#000000" font-family="sans-serif" font-size="14" lengthAdjust="spacing" textLength="33" x="980" y="107.292">Push</text><rect fill="#E2E2F0" height="30.2969" rx="2.5" ry="2.5" style="stroke:#181818;stroke-width:0.5;" width="47" x="973" y="751.25"/><text fill="#000000" font-family="sans-serif" font-size="14" lengthAdjust="spacing" textLength="33" x="980" y="771.2451">Push</text><rect fill="#E2E2F0" height="30.2969" rx="2.5" ry="2.5" style="stroke:#181818;stroke-width:0.5;" width="44" x="1030" y="87.2969"/><text fill="#000000" font-family="sans-serif" font-size="14" lengthAdjust="spacing" textLength="30" x="1037" y="107.292">Like</text><rect fill="#E2E2F0" height="30.2969" rx="2.5" ry="2.5" style="stroke:#181818;stroke-width:0.5;" width="44" x="1030" y="751.25"/><text fill="#000000" font-family="sans-serif" font-size="14" lengthAdjust="spacing" textLength="30" x="1037" y="771.2451">Like</text><path d="M1271.5,92.2969 L1322.5,92.2969 C1327.5,92.2969 1327.5,105.4453 1327.5,105.4453 C1327.5,105.4453 1327.5,118.5938 1322.5,118.5938 L1271.5,118.5938 C1266.5,118.5938 1266.5,105.4453 1266.5,105.4453 C1266.5,105.4453 1266.5,92.2969 1271.5,92.2969 " fill="#E2E2F0" style="stroke:#181818;stroke-width:0.5;"/><path d="M1322.5,92.2969 C1317.5,92.2969 1317.5,105.4453 1317.5,105.4453 C1317.5,118.5938 1322.5,118.5938 1322.5,118.5938 " fill="none" style="stroke:#181818;stroke-width:0.5;"/><text fill="#000000" font-family="sans-serif" font-size="14" lengthAdjust="spacing" textLength="41" x="1271.5" y="110.292">Kafka</text><path d="M1271.5,751.25 L1322.5,751.25 C1327.5,751.25 1327.5,764.3984 1327.5,764.3984 C1327.5,764.3984 1327.5,777.5469 1322.5,777.5469 L1271.5,777.5469 C1266.5,777.5469 1266.5,764.3984 1266.5,764.3984 C1266.5,764.3984 1266.5,751.25 1271.5,751.25 " fill="#E2E2F0" style="stroke:#181818;stroke-width:0.5;"/><path d="M1322.5,751.25 C1317.5,751.25 1317.5,764.3984 1317.5,764.3984 C1317.5,777.5469 1322.5,777.5469 1322.5,777.5469 " fill="none" style="stroke:#181818;stroke-width:0.5;"/><text fill="#000000" font-family="sans-serif" font-size="14" lengthAdjust="spacing" textLength="41" x="1271.5" y="769.2451">Kafka</text><polygon fill="#181818" points="232.5,145.7266,242.5,149.7266,232.5,153.7266,236.5,149.7266" style="stroke:#181818;stroke-width:1.0;"/><line style="stroke:#181818;stroke-width:1.0;" x1="38.5" x2="238.5" y1="149.7266" y2="149.7266"/><text fill="#000000" font-family="sans-serif" font-size="13" lengthAdjust="spacing" textLength="182" x="45.5" y="144.6606">delete a comment on a post</text><polygon fill="#181818" points="616.5,174.8594,626.5,178.8594,616.5,182.8594,620.5,178.8594" style="stroke:#181818;stroke-width:1.0;"/><line style="stroke:#181818;stroke-width:1.0;" x1="244.5" x2="622.5" y1="178.8594" y2="178.8594"/><text fill="#000000" font-family="sans-serif" font-size="13" lengthAdjust="spacing" textLength="148" x="251.5" y="173.7935">check if the post exists</text><path d="M10,193.8594 L76,193.8594 L76,200.9922 L66,210.9922 L10,210.9922 L10,193.8594 " fill="#EEEEEE" style="stroke:#000000;stroke-width:1.5;"/><rect fill="none" height="46.2656" style="stroke:#000000;stroke-width:1.5;" width="264.5" x="10" y="193.8594"/><text fill="#000000" font-family="sans-serif" font-size="13" font-weight="bold" lengthAdjust="spacing" textLength="21" x="25" y="206.9263">alt</text><text fill="#000000" font-family="sans-serif" font-size="11" font-weight="bold" lengthAdjust="spacing" textLength="86" x="91" y="206.0698">[if not exist]</text><polygon fill="#181818" points="49.5,228.125,39.5,232.125,49.5,236.125,45.5,232.125" style="stroke:#181818;stroke-width:1.0;"/><line style="stroke:#181818;stroke-width:1.0;" x1="43.5" x2="243.5" y1="232.125" y2="232.125"/><text fill="#000000" font-family="sans-serif" font-size="13" lengthAdjust="spacing" textLength="94" x="55.5" y="227.0591">error response</text><polygon fill="#181818" points="415.5,264.2578,425.5,268.2578,415.5,272.2578,419.5,268.2578" style="stroke:#181818;stroke-width:1.0;"/><line style="stroke:#181818;stroke-width:1.0;" x1="244.5" x2="421.5" y1="268.2578" y2="268.2578"/><text fill="#000000" font-family="sans-serif" font-size="13" lengthAdjust="spacing" textLength="159" x="251.5" y="263.1919">comment delete request</text><line style="stroke:#181818;stroke-width:1.0;" x1="427.5" x2="469.5" y1="312.5234" y2="312.5234"/><line style="stroke:#181818;stroke-width:1.0;" x1="469.5" x2="469.5" y1="312.5234" y2="325.5234"/><line style="stroke:#181818;stroke-width:1.0;" x1="428.5" x2="469.5" y1="325.5234" y2="325.5234"/><polygon fill="#181818" points="438.5,321.5234,428.5,325.5234,438.5,329.5234,434.5,325.5234" style="stroke:#181818;stroke-width:1.0;"/><text fill="#000000" font-family="sans-serif" font-size="13" lengthAdjust="spacing" textLength="106" x="434.5" y="292.3247">delete comment</text><text fill="#000000" font-family="sans-serif" font-size="13" lengthAdjust="spacing" textLength="187" x="434.5" y="307.4575">(and all threaded comments)</text><path d="M10,340.5234 L76,340.5234 L76,347.6563 L66,357.6563 L10,357.6563 L10,340.5234 " fill="#EEEEEE" style="stroke:#000000;stroke-width:1.5;"/><rect fill="none" height="75.3984" style="stroke:#000000;stroke-width:1.5;" width="470.5" x="10" y="340.5234"/><text fill="#000000" font-family="sans-serif" font-size="13" font-weight="bold" lengthAdjust="spacing" textLength="21" x="25" y="353.5903">alt</text><text fill="#000000" font-family="sans-serif" font-size="11" font-weight="bold" lengthAdjust="spacing" textLength="86" x="91" y="352.7339">[if not exist]</text><polygon fill="#181818" points="255.5,374.7891,245.5,378.7891,255.5,382.7891,251.5,378.7891" style="stroke:#181818;stroke-width:1.0;"/><line style="stroke:#181818;stroke-width:1.0;" x1="249.5" x2="426.5" y1="378.7891" y2="378.7891"/><text fill="#000000" font-family="sans-serif" font-size="13" lengthAdjust="spacing" textLength="94" x="261.5" y="373.7231">error response</text><polygon fill="#181818" points="49.5,403.9219,39.5,407.9219,49.5,411.9219,45.5,407.9219" style="stroke:#181818;stroke-width:1.0;"/><line style="stroke:#181818;stroke-width:1.0;" x1="43.5" x2="243.5" y1="407.9219" y2="407.9219"/><text fill="#000000" font-family="sans-serif" font-size="13" lengthAdjust="spacing" textLength="94" x="55.5" y="402.856">error response</text><polygon fill="#181818" points="255.5,440.0547,245.5,444.0547,255.5,448.0547,251.5,444.0547" style="stroke:#181818;stroke-width:1.0;"/><line style="stroke:#181818;stroke-width:1.0;" x1="249.5" x2="426.5" y1="444.0547" y2="444.0547"/><text fill="#000000" font-family="sans-serif" font-size="13" lengthAdjust="spacing" textLength="59" x="261.5" y="438.9888">response</text><polygon fill="#181818" points="49.5,469.1875,39.5,473.1875,49.5,477.1875,45.5,473.1875" style="stroke:#181818;stroke-width:1.0;"/><line style="stroke:#181818;stroke-width:1.0;" x1="43.5" x2="243.5" y1="473.1875" y2="473.1875"/><text fill="#000000" font-family="sans-serif" font-size="13" lengthAdjust="spacing" textLength="59" x="55.5" y="468.1216">response</text><polygon fill="#181818" points="1285,498.3203,1295,502.3203,1285,506.3203,1289,502.3203" style="stroke:#181818;stroke-width:1.0;"/><line style="stroke:#181818;stroke-width:1.0;stroke-dasharray:2.0,2.0;" x1="427.5" x2="1291" y1="502.3203" y2="502.3203"/><text fill="#000000" font-family="sans-serif" font-size="13" lengthAdjust="spacing" textLength="299" x="434.5" y="497.2544">publish N comment_deleted events(w/ post id)</text><polygon fill="#181818" points="805.5,527.4531,795.5,531.4531,805.5,535.4531,801.5,531.4531" style="stroke:#181818;stroke-width:1.0;"/><line style="stroke:#181818;stroke-width:1.0;stroke-dasharray:2.0,2.0;" x1="799.5" x2="1296" y1="531.4531" y2="531.4531"/><text fill="#000000" font-family="sans-serif" font-size="13" lengthAdjust="spacing" textLength="226" x="811.5" y="526.3872">comsume comment_deleted event</text><polygon fill="#181818" points="438.5,556.5859,428.5,560.5859,438.5,564.5859,434.5,560.5859" style="stroke:#181818;stroke-width:1.0;"/><line style="stroke:#181818;stroke-width:1.0;" x1="432.5" x2="793.5" y1="560.5859" y2="560.5859"/><text fill="#000000" font-family="sans-serif" font-size="13" lengthAdjust="spacing" textLength="143" x="444.5" y="555.52">request comment info</text><path d="M590.5,575.5859 L656.5,575.5859 L656.5,582.7188 L646.5,592.7188 L590.5,592.7188 L590.5,575.5859 " fill="#EEEEEE" style="stroke:#000000;stroke-width:1.5;"/><rect fill="none" height="88.3984" style="stroke:#000000;stroke-width:1.5;" width="411" x="590.5" y="575.5859"/><text fill="#000000" font-family="sans-serif" font-size="13" font-weight="bold" lengthAdjust="spacing" textLength="21" x="605.5" y="588.6528">alt</text><text fill="#000000" font-family="sans-serif" font-size="11" font-weight="bold" lengthAdjust="spacing" textLength="86" x="671.5" y="587.7964">[if not exist]</text><polygon fill="#181818" points="639.5,609.8516,629.5,613.8516,639.5,617.8516,635.5,613.8516" style="stroke:#181818;stroke-width:1.0;"/><line style="stroke:#181818;stroke-width:1.0;" x1="633.5" x2="793.5" y1="613.8516" y2="613.8516"/><text fill="#000000" font-family="sans-serif" font-size="13" lengthAdjust="spacing" textLength="142" x="645.5" y="608.7856">request post author id</text><line style="stroke:#181818;stroke-width:1.0;" x1="794.5" x2="836.5" y1="642.9844" y2="642.9844"/><line style="stroke:#181818;stroke-width:1.0;" x1="836.5" x2="836.5" y1="642.9844" y2="655.9844"/><line style="stroke:#181818;stroke-width:1.0;" x1="795.5" x2="836.5" y1="655.9844" y2="655.9844"/><polygon fill="#181818" points="805.5,651.9844,795.5,655.9844,805.5,659.9844,801.5,655.9844" style="stroke:#181818;stroke-width:1.0;"/><text fill="#000000" font-family="sans-serif" font-size="13" lengthAdjust="spacing" textLength="188" x="801.5" y="637.9185">delete/update user inbox info</text><polygon fill="#181818" points="1063,688.1172,1053,692.1172,1063,696.1172,1059,692.1172" style="stroke:#181818;stroke-width:1.0;"/><line style="stroke:#181818;stroke-width:1.0;stroke-dasharray:2.0,2.0;" x1="1057" x2="1296" y1="692.1172" y2="692.1172"/><text fill="#000000" font-family="sans-serif" font-size="13" lengthAdjust="spacing" textLength="221" x="1069" y="687.0513">consume comment_deleted event</text><line style="stroke:#181818;stroke-width:1.0;" x1="1052" x2="1094" y1="721.25" y2="721.25"/><line style="stroke:#181818;stroke-width:1.0;" x1="1094" x2="1094" y1="721.25" y2="734.25"/><line style="stroke:#181818;stroke-width:1.0;" x1="1053" x2="1094" y1="734.25" y2="734.25"/><polygon fill="#181818" points="1063,730.25,1053,734.25,1063,738.25,1059,734.25" style="stroke:#181818;stroke-width:1.0;"/><text fill="#000000" font-family="sans-serif" font-size="13" lengthAdjust="spacing" textLength="111" x="1059" y="716.1841">delete all like info</text><!--SRC=[ZL9DQyCm3BtxLuYUsaFfFOmTDYYCVR3BReFXn0enSUpCTjR-_4cEapPh2pl9rfEUdfySTJG8AuK68uA4odKTsWZEqgLt8K9jt64bXAoYy_0Hq8CCC50KlVHHLxgNLF-mttE-hEj5-Z7J4PIP5_0hAYqPxFYmW9viwOuCQJuieFSXD8pq51V0YswH0KDHV0yu83pBkaqJMZu8mS9XUyz22xZzQa4uboLT1LGDLYte6cA3eojur2468Ktaj7KvC_BVRKT-z9uyynXwPmCAj6hYpGEBUNAMuf5a4ysKFY_D9Vd-QTVIAf36a2YFKg6QeB2vrCLpITPCzaVQVsIVjrzldBEpVDAVZ2zeMQNHjBUtYUHhV8y2_67DwyDkT5QhZKWzgJjjFzaKXWwlzufKjF0g-pZRgstjBasP-_AQfwwaGmwn8HkqEfLbCUFmtT0hIVj83embQGhRnH-GNDbEZw_8bTloKpNHSpnzIbfi0fZq5m00]--></g></svg>