<?xml version="1.0" encoding="us-ascii" standalone="no"?><svg xmlns="http://www.w3.org/2000/svg" xmlns:xlink="http://www.w3.org/1999/xlink" contentStyleType="text/css" height="817px" preserveAspectRatio="none" style="width:1247px;height:817px;background:#FFFFFF;" version="1.1" viewBox="0 0 1247 817" width="1247px" zoomAndPan="magnify"><defs/><g><text fill="#000000" font-family="sans-serif" font-size="14" font-weight="bold" lengthAdjust="spacing" textLength="307" x="468.75" y="27.9951">delete a comment on a comment flow</text><rect fill="none" height="46.2656" style="stroke:#000000;stroke-width:1.5;" width="298.5" x="10" y="193.8594"/><rect fill="none" height="75.3984" style="stroke:#000000;stroke-width:1.5;" width="504.5" x="10" y="325.3906"/><rect fill="none" height="88.3984" style="stroke:#000000;stroke-width:1.5;" width="506" x="408.5" y="560.4531"/><line style="stroke:#181818;stroke-width:0.5;stroke-dasharray:5.0,5.0;" x1="38" x2="38" y1="118.5938" y2="737.1172"/><line style="stroke:#181818;stroke-width:0.5;stroke-dasharray:5.0,5.0;" x1="278.5" x2="278.5" y1="118.5938" y2="737.1172"/><line style="stroke:#181818;stroke-width:0.5;stroke-dasharray:5.0,5.0;" x1="461.5" x2="461.5" y1="118.5938" y2="737.1172"/><line style="stroke:#181818;stroke-width:0.5;stroke-dasharray:5.0,5.0;" x1="581.5" x2="581.5" y1="118.5938" y2="737.1172"/><line style="stroke:#181818;stroke-width:0.5;stroke-dasharray:5.0,5.0;" x1="707.5" x2="707.5" y1="118.5938" y2="737.1172"/><line style="stroke:#181818;stroke-width:0.5;stroke-dasharray:5.0,5.0;" x1="909" x2="909" y1="118.5938" y2="737.1172"/><line style="stroke:#181818;stroke-width:0.5;stroke-dasharray:5.0,5.0;" x1="965" x2="965" y1="118.5938" y2="737.1172"/><line style="stroke:#181818;stroke-width:0.5;stroke-dasharray:5.0,5.0;" x1="1209.5" x2="1209.5" y1="118.5938" y2="737.1172"/><text fill="#000000" font-family="sans-serif" font-size="14" lengthAdjust="spacing" textLength="31" x="20" y="115.292">User</text><ellipse cx="38.5" cy="50.7969" fill="#E2E2F0" rx="8" ry="8" style="stroke:#181818;stroke-width:0.5;"/><path d="M38.5,58.7969 L38.5,85.7969 M25.5,66.7969 L51.5,66.7969 M38.5,85.7969 L25.5,100.7969 M38.5,85.7969 L51.5,100.7969 " fill="none" style="stroke:#181818;stroke-width:0.5;"/><text fill="#000000" font-family="sans-serif" font-size="14" lengthAdjust="spacing" textLength="31" x="20" y="749.1123">User</text><ellipse cx="38.5" cy="760.9141" fill="#E2E2F0" rx="8" ry="8" style="stroke:#181818;stroke-width:0.5;"/><path d="M38.5,768.9141 L38.5,795.9141 M25.5,776.9141 L51.5,776.9141 M38.5,795.9141 L25.5,810.9141 M38.5,795.9141 L51.5,810.9141 " fill="none" style="stroke:#181818;stroke-width:0.5;"/><rect fill="#E2E2F0" height="30.2969" rx="2.5" ry="2.5" style="stroke:#181818;stroke-width:0.5;" width="40" x="258.5" y="87.2969"/><text fill="#000000" font-family="sans-serif" font-size="14" lengthAdjust="spacing" textLength="26" x="265.5" y="107.292">BFF</text><rect fill="#E2E2F0" height="30.2969" rx="2.5" ry="2.5" style="stroke:#181818;stroke-width:0.5;" width="40" x="258.5" y="736.1172"/><text fill="#000000" font-family="sans-serif" font-size="14" lengthAdjust="spacing" textLength="26" x="265.5" y="756.1123">BFF</text><rect fill="#E2E2F0" height="30.2969" rx="2.5" ry="2.5" style="stroke:#181818;stroke-width:0.5;" width="86" x="418.5" y="87.2969"/><text fill="#000000" font-family="sans-serif" font-size="14" lengthAdjust="spacing" textLength="72" x="425.5" y="107.292">Comment</text><rect fill="#E2E2F0" height="30.2969" rx="2.5" ry="2.5" style="stroke:#181818;stroke-width:0.5;" width="86" x="418.5" y="736.1172"/><text fill="#000000" font-family="sans-serif" font-size="14" lengthAdjust="spacing" textLength="72" x="425.5" y="756.1123">Comment</text><rect fill="#E2E2F0" height="30.2969" rx="2.5" ry="2.5" style="stroke:#181818;stroke-width:0.5;" width="56" x="553.5" y="87.2969"/><text fill="#000000" font-family="sans-serif" font-size="14" lengthAdjust="spacing" textLength="42" x="560.5" y="107.292">Media</text><rect fill="#E2E2F0" height="30.2969" rx="2.5" ry="2.5" style="stroke:#181818;stroke-width:0.5;" width="56" x="553.5" y="736.1172"/><text fill="#000000" font-family="sans-serif" font-size="14" lengthAdjust="spacing" textLength="42" x="560.5" y="756.1123">Media</text><rect fill="#E2E2F0" height="30.2969" rx="2.5" ry="2.5" style="stroke:#181818;stroke-width:0.5;" width="54" x="680.5" y="87.2969"/><text fill="#000000" font-family="sans-serif" font-size="14" lengthAdjust="spacing" textLength="40" x="687.5" y="107.292">Inbox</text><rect fill="#E2E2F0" height="30.2969" rx="2.5" ry="2.5" style="stroke:#181818;stroke-width:0.5;" width="54" x="680.5" y="736.1172"/><text fill="#000000" font-family="sans-serif" font-size="14" lengthAdjust="spacing" textLength="40" x="687.5" y="756.1123">Inbox</text><rect fill="#E2E2F0" height="30.2969" rx="2.5" ry="2.5" style="stroke:#181818;stroke-width:0.5;" width="47" x="886" y="87.2969"/><text fill="#000000" font-family="sans-serif" font-size="14" lengthAdjust="spacing" textLength="33" x="893" y="107.292">Push</text><rect fill="#E2E2F0" height="30.2969" rx="2.5" ry="2.5" style="stroke:#181818;stroke-width:0.5;" width="47" x="886" y="736.1172"/><text fill="#000000" font-family="sans-serif" font-size="14" lengthAdjust="spacing" textLength="33" x="893" y="756.1123">Push</text><rect fill="#E2E2F0" height="30.2969" rx="2.5" ry="2.5" style="stroke:#181818;stroke-width:0.5;" width="44" x="943" y="87.2969"/><text fill="#000000" font-family="sans-serif" font-size="14" lengthAdjust="spacing" textLength="30" x="950" y="107.292">Like</text><rect fill="#E2E2F0" height="30.2969" rx="2.5" ry="2.5" style="stroke:#181818;stroke-width:0.5;" width="44" x="943" y="736.1172"/><text fill="#000000" font-family="sans-serif" font-size="14" lengthAdjust="spacing" textLength="30" x="950" y="756.1123">Like</text><path d="M1184.5,92.2969 L1235.5,92.2969 C1240.5,92.2969 1240.5,105.4453 1240.5,105.4453 C1240.5,105.4453 1240.5,118.5938 1235.5,118.5938 L1184.5,118.5938 C1179.5,118.5938 1179.5,105.4453 1179.5,105.4453 C1179.5,105.4453 1179.5,92.2969 1184.5,92.2969 " fill="#E2E2F0" style="stroke:#181818;stroke-width:0.5;"/><path d="M1235.5,92.2969 C1230.5,92.2969 1230.5,105.4453 1230.5,105.4453 C1230.5,118.5938 1235.5,118.5938 1235.5,118.5938 " fill="none" style="stroke:#181818;stroke-width:0.5;"/><text fill="#000000" font-family="sans-serif" font-size="14" lengthAdjust="spacing" textLength="41" x="1184.5" y="110.292">Kafka</text><path d="M1184.5,736.1172 L1235.5,736.1172 C1240.5,736.1172 1240.5,749.2656 1240.5,749.2656 C1240.5,749.2656 1240.5,762.4141 1235.5,762.4141 L1184.5,762.4141 C1179.5,762.4141 1179.5,749.2656 1179.5,749.2656 C1179.5,749.2656 1179.5,736.1172 1184.5,736.1172 " fill="#E2E2F0" style="stroke:#181818;stroke-width:0.5;"/><path d="M1235.5,736.1172 C1230.5,736.1172 1230.5,749.2656 1230.5,749.2656 C1230.5,762.4141 1235.5,762.4141 1235.5,762.4141 " fill="none" style="stroke:#181818;stroke-width:0.5;"/><text fill="#000000" font-family="sans-serif" font-size="14" lengthAdjust="spacing" textLength="41" x="1184.5" y="754.1123">Kafka</text><polygon fill="#181818" points="266.5,145.7266,276.5,149.7266,266.5,153.7266,270.5,149.7266" style="stroke:#181818;stroke-width:1.0;"/><line style="stroke:#181818;stroke-width:1.0;" x1="38.5" x2="272.5" y1="149.7266" y2="149.7266"/><text fill="#000000" font-family="sans-serif" font-size="13" lengthAdjust="spacing" textLength="216" x="45.5" y="144.6606">delete a comment on a comment</text><polygon fill="#181818" points="569.5,174.8594,579.5,178.8594,569.5,182.8594,573.5,178.8594" style="stroke:#181818;stroke-width:1.0;"/><line style="stroke:#181818;stroke-width:1.0;" x1="278.5" x2="575.5" y1="178.8594" y2="178.8594"/><text fill="#000000" font-family="sans-serif" font-size="13" lengthAdjust="spacing" textLength="182" x="285.5" y="173.7935">check if the comment exists</text><path d="M10,193.8594 L76,193.8594 L76,200.9922 L66,210.9922 L10,210.9922 L10,193.8594 " fill="#EEEEEE" style="stroke:#000000;stroke-width:1.5;"/><rect fill="none" height="46.2656" style="stroke:#000000;stroke-width:1.5;" width="298.5" x="10" y="193.8594"/><text fill="#000000" font-family="sans-serif" font-size="13" font-weight="bold" lengthAdjust="spacing" textLength="21" x="25" y="206.9263">alt</text><text fill="#000000" font-family="sans-serif" font-size="11" font-weight="bold" lengthAdjust="spacing" textLength="86" x="91" y="206.0698">[if not exist]</text><polygon fill="#181818" points="49.5,228.125,39.5,232.125,49.5,236.125,45.5,232.125" style="stroke:#181818;stroke-width:1.0;"/><line style="stroke:#181818;stroke-width:1.0;" x1="43.5" x2="277.5" y1="232.125" y2="232.125"/><text fill="#000000" font-family="sans-serif" font-size="13" lengthAdjust="spacing" textLength="94" x="55.5" y="227.0591">error response</text><polygon fill="#181818" points="449.5,264.2578,459.5,268.2578,449.5,272.2578,453.5,268.2578" style="stroke:#181818;stroke-width:1.0;"/><line style="stroke:#181818;stroke-width:1.0;" x1="278.5" x2="455.5" y1="268.2578" y2="268.2578"/><text fill="#000000" font-family="sans-serif" font-size="13" lengthAdjust="spacing" textLength="159" x="285.5" y="263.1919">comment delete request</text><line style="stroke:#181818;stroke-width:1.0;" x1="461.5" x2="503.5" y1="297.3906" y2="297.3906"/><line style="stroke:#181818;stroke-width:1.0;" x1="503.5" x2="503.5" y1="297.3906" y2="310.3906"/><line style="stroke:#181818;stroke-width:1.0;" x1="462.5" x2="503.5" y1="310.3906" y2="310.3906"/><polygon fill="#181818" points="472.5,306.3906,462.5,310.3906,472.5,314.3906,468.5,310.3906" style="stroke:#181818;stroke-width:1.0;"/><text fill="#000000" font-family="sans-serif" font-size="13" lengthAdjust="spacing" textLength="106" x="468.5" y="292.3247">delete comment</text><path d="M10,325.3906 L76,325.3906 L76,332.5234 L66,342.5234 L10,342.5234 L10,325.3906 " fill="#EEEEEE" style="stroke:#000000;stroke-width:1.5;"/><rect fill="none" height="75.3984" style="stroke:#000000;stroke-width:1.5;" width="504.5" x="10" y="325.3906"/><text fill="#000000" font-family="sans-serif" font-size="13" font-weight="bold" lengthAdjust="spacing" textLength="21" x="25" y="338.4575">alt</text><text fill="#000000" font-family="sans-serif" font-size="11" font-weight="bold" lengthAdjust="spacing" textLength="86" x="91" y="337.6011">[if not exist]</text><polygon fill="#181818" points="289.5,359.6563,279.5,363.6563,289.5,367.6563,285.5,363.6563" style="stroke:#181818;stroke-width:1.0;"/><line style="stroke:#181818;stroke-width:1.0;" x1="283.5" x2="460.5" y1="363.6563" y2="363.6563"/><text fill="#000000" font-family="sans-serif" font-size="13" lengthAdjust="spacing" textLength="94" x="295.5" y="358.5903">error response</text><polygon fill="#181818" points="49.5,388.7891,39.5,392.7891,49.5,396.7891,45.5,392.7891" style="stroke:#181818;stroke-width:1.0;"/><line style="stroke:#181818;stroke-width:1.0;" x1="43.5" x2="277.5" y1="392.7891" y2="392.7891"/><text fill="#000000" font-family="sans-serif" font-size="13" lengthAdjust="spacing" textLength="94" x="55.5" y="387.7231">error response</text><polygon fill="#181818" points="289.5,424.9219,279.5,428.9219,289.5,432.9219,285.5,428.9219" style="stroke:#181818;stroke-width:1.0;"/><line style="stroke:#181818;stroke-width:1.0;" x1="283.5" x2="460.5" y1="428.9219" y2="428.9219"/><text fill="#000000" font-family="sans-serif" font-size="13" lengthAdjust="spacing" textLength="59" x="295.5" y="423.856">response</text><polygon fill="#181818" points="49.5,454.0547,39.5,458.0547,49.5,462.0547,45.5,458.0547" style="stroke:#181818;stroke-width:1.0;"/><line style="stroke:#181818;stroke-width:1.0;" x1="43.5" x2="277.5" y1="458.0547" y2="458.0547"/><text fill="#000000" font-family="sans-serif" font-size="13" lengthAdjust="spacing" textLength="59" x="55.5" y="452.9888">response</text><polygon fill="#181818" points="1198,483.1875,1208,487.1875,1198,491.1875,1202,487.1875" style="stroke:#181818;stroke-width:1.0;"/><line style="stroke:#181818;stroke-width:1.0;stroke-dasharray:2.0,2.0;" x1="461.5" x2="1204" y1="487.1875" y2="487.1875"/><text fill="#000000" font-family="sans-serif" font-size="13" lengthAdjust="spacing" textLength="359" x="468.5" y="482.1216">publish comment_deleted event(w/ parent comment id)</text><polygon fill="#181818" points="718.5,512.3203,708.5,516.3203,718.5,520.3203,714.5,516.3203" style="stroke:#181818;stroke-width:1.0;"/><line style="stroke:#181818;stroke-width:1.0;stroke-dasharray:2.0,2.0;" x1="712.5" x2="1209" y1="516.3203" y2="516.3203"/><text fill="#000000" font-family="sans-serif" font-size="13" lengthAdjust="spacing" textLength="226" x="724.5" y="511.2544">comsume comment_deleted event</text><polygon fill="#181818" points="472.5,541.4531,462.5,545.4531,472.5,549.4531,468.5,545.4531" style="stroke:#181818;stroke-width:1.0;"/><line style="stroke:#181818;stroke-width:1.0;" x1="466.5" x2="706.5" y1="545.4531" y2="545.4531"/><text fill="#000000" font-family="sans-serif" font-size="13" lengthAdjust="spacing" textLength="143" x="478.5" y="540.3872">request comment info</text><path d="M408.5,560.4531 L474.5,560.4531 L474.5,567.5859 L464.5,577.5859 L408.5,577.5859 L408.5,560.4531 " fill="#EEEEEE" style="stroke:#000000;stroke-width:1.5;"/><rect fill="none" height="88.3984" style="stroke:#000000;stroke-width:1.5;" width="506" x="408.5" y="560.4531"/><text fill="#000000" font-family="sans-serif" font-size="13" font-weight="bold" lengthAdjust="spacing" textLength="21" x="423.5" y="573.52">alt</text><text fill="#000000" font-family="sans-serif" font-size="11" font-weight="bold" lengthAdjust="spacing" textLength="86" x="489.5" y="572.6636">[if not exist]</text><polygon fill="#181818" points="472.5,594.7188,462.5,598.7188,472.5,602.7188,468.5,598.7188" style="stroke:#181818;stroke-width:1.0;"/><line style="stroke:#181818;stroke-width:1.0;" x1="466.5" x2="706.5" y1="598.7188" y2="598.7188"/><text fill="#000000" font-family="sans-serif" font-size="13" lengthAdjust="spacing" textLength="222" x="478.5" y="593.6528">request parent comment author id</text><line style="stroke:#181818;stroke-width:1.0;" x1="707.5" x2="749.5" y1="627.8516" y2="627.8516"/><line style="stroke:#181818;stroke-width:1.0;" x1="749.5" x2="749.5" y1="627.8516" y2="640.8516"/><line style="stroke:#181818;stroke-width:1.0;" x1="708.5" x2="749.5" y1="640.8516" y2="640.8516"/><polygon fill="#181818" points="718.5,636.8516,708.5,640.8516,718.5,644.8516,714.5,640.8516" style="stroke:#181818;stroke-width:1.0;"/><text fill="#000000" font-family="sans-serif" font-size="13" lengthAdjust="spacing" textLength="188" x="714.5" y="622.7856">delete/update user inbox info</text><polygon fill="#181818" points="976,672.9844,966,676.9844,976,680.9844,972,676.9844" style="stroke:#181818;stroke-width:1.0;"/><line style="stroke:#181818;stroke-width:1.0;stroke-dasharray:2.0,2.0;" x1="970" x2="1209" y1="676.9844" y2="676.9844"/><text fill="#000000" font-family="sans-serif" font-size="13" lengthAdjust="spacing" textLength="221" x="982" y="671.9185">consume comment_deleted event</text><line style="stroke:#181818;stroke-width:1.0;" x1="965" x2="1007" y1="706.1172" y2="706.1172"/><line style="stroke:#181818;stroke-width:1.0;" x1="1007" x2="1007" y1="706.1172" y2="719.1172"/><line style="stroke:#181818;stroke-width:1.0;" x1="966" x2="1007" y1="719.1172" y2="719.1172"/><polygon fill="#181818" points="976,715.1172,966,719.1172,976,723.1172,972,719.1172" style="stroke:#181818;stroke-width:1.0;"/><text fill="#000000" font-family="sans-serif" font-size="13" lengthAdjust="spacing" textLength="111" x="972" y="701.0513">delete all like info</text><!--SRC=[ZLBBJiCm4BpxArOzmQ7gFK8SGAg408aBP-J66yMAOmS_Q3-VNST9cpuG9pixixFZsKGT3S9AeS688A5sVOysWhCd7urn-vKGiexEmsT03p90ebCCqaTTwq4IwscxvVgkQHRbvo92KD5RmE-ej6Imvyi2Uh4xTs18ysK1VQJGCZBGkG3UT8SC63h5TyA4y2gRBa_e-2846uVr8nkjuC-72w8mCrkhe6wnxa0t45kS-NZG8GOXJMJ4kb8PfpoinodeFINdCGpE1XHerIHTPAfPhnZoIEP9PYgVKWjbCdancgLfyim_c_uVPwVjrnldwkoGBEQ4AzhApcXQK86-HiCAy8U-xlORe8rnozIgrRt8hLaaRpi74bAFrqL49YrIAOaTHMtZBhEvtNVcIQROKZ9Q7LkAiT789WrAqXPoA2CbJ-G4-UUZeDPJ7ZK5TVifcKtoV1v_I6Do8Ol-0W00]--></g></svg>