<?xml version="1.0" encoding="us-ascii" standalone="no"?><svg xmlns="http://www.w3.org/2000/svg" xmlns:xlink="http://www.w3.org/1999/xlink" contentStyleType="text/css" height="701px" preserveAspectRatio="none" style="width:950px;height:701px;background:#FFFFFF;" version="1.1" viewBox="0 0 950 701" width="950px" zoomAndPan="magnify"><defs/><g><text fill="#000000" font-family="sans-serif" font-size="14" font-weight="bold" lengthAdjust="spacing" textLength="110" x="418.5" y="27.9951">post like flow</text><rect fill="none" height="46.2656" style="stroke:#000000;stroke-width:1.5;" width="176.5" x="10" y="193.8594"/><rect fill="none" height="117.5313" style="stroke:#000000;stroke-width:1.5;" width="591.5" x="290.5" y="486.1875"/><line style="stroke:#181818;stroke-width:0.5;stroke-dasharray:5.0,5.0;" x1="38" x2="38" y1="118.5938" y2="620.7188"/><line style="stroke:#181818;stroke-width:0.5;stroke-dasharray:5.0,5.0;" x1="156.5" x2="156.5" y1="118.5938" y2="620.7188"/><line style="stroke:#181818;stroke-width:0.5;stroke-dasharray:5.0,5.0;" x1="328.5" x2="328.5" y1="118.5938" y2="620.7188"/><line style="stroke:#181818;stroke-width:0.5;stroke-dasharray:5.0,5.0;" x1="388.5" x2="388.5" y1="118.5938" y2="620.7188"/><line style="stroke:#181818;stroke-width:0.5;stroke-dasharray:5.0,5.0;" x1="588.5" x2="588.5" y1="118.5938" y2="620.7188"/><line style="stroke:#181818;stroke-width:0.5;stroke-dasharray:5.0,5.0;" x1="848" x2="848" y1="118.5938" y2="620.7188"/><line style="stroke:#181818;stroke-width:0.5;stroke-dasharray:5.0,5.0;" x1="912" x2="912" y1="118.5938" y2="620.7188"/><text fill="#000000" font-family="sans-serif" font-size="14" lengthAdjust="spacing" textLength="31" x="20" y="115.292">User</text><ellipse cx="38.5" cy="50.7969" fill="#E2E2F0" rx="8" ry="8" style="stroke:#181818;stroke-width:0.5;"/><path d="M38.5,58.7969 L38.5,85.7969 M25.5,66.7969 L51.5,66.7969 M38.5,85.7969 L25.5,100.7969 M38.5,85.7969 L51.5,100.7969 " fill="none" style="stroke:#181818;stroke-width:0.5;"/><text fill="#000000" font-family="sans-serif" font-size="14" lengthAdjust="spacing" textLength="31" x="20" y="632.7139">User</text><ellipse cx="38.5" cy="644.5156" fill="#E2E2F0" rx="8" ry="8" style="stroke:#181818;stroke-width:0.5;"/><path d="M38.5,652.5156 L38.5,679.5156 M25.5,660.5156 L51.5,660.5156 M38.5,679.5156 L25.5,694.5156 M38.5,679.5156 L51.5,694.5156 " fill="none" style="stroke:#181818;stroke-width:0.5;"/><rect fill="#E2E2F0" height="30.2969" rx="2.5" ry="2.5" style="stroke:#181818;stroke-width:0.5;" width="40" x="136.5" y="87.2969"/><text fill="#000000" font-family="sans-serif" font-size="14" lengthAdjust="spacing" textLength="26" x="143.5" y="107.292">BFF</text><rect fill="#E2E2F0" height="30.2969" rx="2.5" ry="2.5" style="stroke:#181818;stroke-width:0.5;" width="40" x="136.5" y="619.7188"/><text fill="#000000" font-family="sans-serif" font-size="14" lengthAdjust="spacing" textLength="26" x="143.5" y="639.7139">BFF</text><rect fill="#E2E2F0" height="30.2969" rx="2.5" ry="2.5" style="stroke:#181818;stroke-width:0.5;" width="56" x="300.5" y="87.2969"/><text fill="#000000" font-family="sans-serif" font-size="14" lengthAdjust="spacing" textLength="42" x="307.5" y="107.292">Media</text><rect fill="#E2E2F0" height="30.2969" rx="2.5" ry="2.5" style="stroke:#181818;stroke-width:0.5;" width="56" x="300.5" y="619.7188"/><text fill="#000000" font-family="sans-serif" font-size="14" lengthAdjust="spacing" textLength="42" x="307.5" y="639.7139">Media</text><rect fill="#E2E2F0" height="30.2969" rx="2.5" ry="2.5" style="stroke:#181818;stroke-width:0.5;" width="44" x="366.5" y="87.2969"/><text fill="#000000" font-family="sans-serif" font-size="14" lengthAdjust="spacing" textLength="30" x="373.5" y="107.292">Like</text><rect fill="#E2E2F0" height="30.2969" rx="2.5" ry="2.5" style="stroke:#181818;stroke-width:0.5;" width="44" x="366.5" y="619.7188"/><text fill="#000000" font-family="sans-serif" font-size="14" lengthAdjust="spacing" textLength="30" x="373.5" y="639.7139">Like</text><rect fill="#E2E2F0" height="30.2969" rx="2.5" ry="2.5" style="stroke:#181818;stroke-width:0.5;" width="54" x="561.5" y="87.2969"/><text fill="#000000" font-family="sans-serif" font-size="14" lengthAdjust="spacing" textLength="40" x="568.5" y="107.292">Inbox</text><rect fill="#E2E2F0" height="30.2969" rx="2.5" ry="2.5" style="stroke:#181818;stroke-width:0.5;" width="54" x="561.5" y="619.7188"/><text fill="#000000" font-family="sans-serif" font-size="14" lengthAdjust="spacing" textLength="40" x="568.5" y="639.7139">Inbox</text><rect fill="#E2E2F0" height="30.2969" rx="2.5" ry="2.5" style="stroke:#181818;stroke-width:0.5;" width="47" x="825" y="87.2969"/><text fill="#000000" font-family="sans-serif" font-size="14" lengthAdjust="spacing" textLength="33" x="832" y="107.292">Push</text><rect fill="#E2E2F0" height="30.2969" rx="2.5" ry="2.5" style="stroke:#181818;stroke-width:0.5;" width="47" x="825" y="619.7188"/><text fill="#000000" font-family="sans-serif" font-size="14" lengthAdjust="spacing" textLength="33" x="832" y="639.7139">Push</text><path d="M887,92.2969 L938,92.2969 C943,92.2969 943,105.4453 943,105.4453 C943,105.4453 943,118.5938 938,118.5938 L887,118.5938 C882,118.5938 882,105.4453 882,105.4453 C882,105.4453 882,92.2969 887,92.2969 " fill="#E2E2F0" style="stroke:#181818;stroke-width:0.5;"/><path d="M938,92.2969 C933,92.2969 933,105.4453 933,105.4453 C933,118.5938 938,118.5938 938,118.5938 " fill="none" style="stroke:#181818;stroke-width:0.5;"/><text fill="#000000" font-family="sans-serif" font-size="14" lengthAdjust="spacing" textLength="41" x="887" y="110.292">Kafka</text><path d="M887,619.7188 L938,619.7188 C943,619.7188 943,632.8672 943,632.8672 C943,632.8672 943,646.0156 938,646.0156 L887,646.0156 C882,646.0156 882,632.8672 882,632.8672 C882,632.8672 882,619.7188 887,619.7188 " fill="#E2E2F0" style="stroke:#181818;stroke-width:0.5;"/><path d="M938,619.7188 C933,619.7188 933,632.8672 933,632.8672 C933,646.0156 938,646.0156 938,646.0156 " fill="none" style="stroke:#181818;stroke-width:0.5;"/><text fill="#000000" font-family="sans-serif" font-size="14" lengthAdjust="spacing" textLength="41" x="887" y="637.7139">Kafka</text><polygon fill="#181818" points="144.5,145.7266,154.5,149.7266,144.5,153.7266,148.5,149.7266" style="stroke:#181818;stroke-width:1.0;"/><line style="stroke:#181818;stroke-width:1.0;" x1="38.5" x2="150.5" y1="149.7266" y2="149.7266"/><text fill="#000000" font-family="sans-serif" font-size="13" lengthAdjust="spacing" textLength="65" x="45.5" y="144.6606">like a post</text><polygon fill="#181818" points="316.5,174.8594,326.5,178.8594,316.5,182.8594,320.5,178.8594" style="stroke:#181818;stroke-width:1.0;"/><line style="stroke:#181818;stroke-width:1.0;" x1="156.5" x2="322.5" y1="178.8594" y2="178.8594"/><text fill="#000000" font-family="sans-serif" font-size="13" lengthAdjust="spacing" textLength="148" x="163.5" y="173.7935">check if the post exists</text><path d="M10,193.8594 L76,193.8594 L76,200.9922 L66,210.9922 L10,210.9922 L10,193.8594 " fill="#EEEEEE" style="stroke:#000000;stroke-width:1.5;"/><rect fill="none" height="46.2656" style="stroke:#000000;stroke-width:1.5;" width="176.5" x="10" y="193.8594"/><text fill="#000000" font-family="sans-serif" font-size="13" font-weight="bold" lengthAdjust="spacing" textLength="21" x="25" y="206.9263">alt</text><text fill="#000000" font-family="sans-serif" font-size="11" font-weight="bold" lengthAdjust="spacing" textLength="86" x="91" y="206.0698">[if not exist]</text><polygon fill="#181818" points="49.5,228.125,39.5,232.125,49.5,236.125,45.5,232.125" style="stroke:#181818;stroke-width:1.0;"/><line style="stroke:#181818;stroke-width:1.0;" x1="43.5" x2="155.5" y1="232.125" y2="232.125"/><text fill="#000000" font-family="sans-serif" font-size="13" lengthAdjust="spacing" textLength="94" x="55.5" y="227.0591">error response</text><polygon fill="#181818" points="376.5,264.2578,386.5,268.2578,376.5,272.2578,380.5,268.2578" style="stroke:#181818;stroke-width:1.0;"/><line style="stroke:#181818;stroke-width:1.0;" x1="156.5" x2="382.5" y1="268.2578" y2="268.2578"/><text fill="#000000" font-family="sans-serif" font-size="13" lengthAdjust="spacing" textLength="74" x="163.5" y="263.1919">like request</text><line style="stroke:#181818;stroke-width:1.0;" x1="388.5" x2="430.5" y1="312.5234" y2="312.5234"/><line style="stroke:#181818;stroke-width:1.0;" x1="430.5" x2="430.5" y1="312.5234" y2="325.5234"/><line style="stroke:#181818;stroke-width:1.0;" x1="389.5" x2="430.5" y1="325.5234" y2="325.5234"/><polygon fill="#181818" points="399.5,321.5234,389.5,325.5234,399.5,329.5234,395.5,325.5234" style="stroke:#181818;stroke-width:1.0;"/><text fill="#000000" font-family="sans-serif" font-size="13" lengthAdjust="spacing" textLength="89" x="395.5" y="292.3247">insert like info</text><text fill="#000000" font-family="sans-serif" font-size="13" lengthAdjust="spacing" textLength="186" x="395.5" y="307.4575">(Do nothing if already exists)</text><polygon fill="#181818" points="167.5,350.6563,157.5,354.6563,167.5,358.6563,163.5,354.6563" style="stroke:#181818;stroke-width:1.0;"/><line style="stroke:#181818;stroke-width:1.0;" x1="161.5" x2="387.5" y1="354.6563" y2="354.6563"/><text fill="#000000" font-family="sans-serif" font-size="13" lengthAdjust="spacing" textLength="59" x="173.5" y="349.5903">response</text><polygon fill="#181818" points="49.5,379.7891,39.5,383.7891,49.5,387.7891,45.5,383.7891" style="stroke:#181818;stroke-width:1.0;"/><line style="stroke:#181818;stroke-width:1.0;" x1="43.5" x2="155.5" y1="383.7891" y2="383.7891"/><text fill="#000000" font-family="sans-serif" font-size="13" lengthAdjust="spacing" textLength="59" x="55.5" y="378.7231">response</text><polygon fill="#181818" points="900.5,408.9219,910.5,412.9219,900.5,416.9219,904.5,412.9219" style="stroke:#181818;stroke-width:1.0;"/><line style="stroke:#181818;stroke-width:1.0;stroke-dasharray:2.0,2.0;" x1="388.5" x2="906.5" y1="412.9219" y2="412.9219"/><text fill="#000000" font-family="sans-serif" font-size="13" lengthAdjust="spacing" textLength="167" x="395.5" y="407.856">publish like_created event</text><polygon fill="#181818" points="599.5,438.0547,589.5,442.0547,599.5,446.0547,595.5,442.0547" style="stroke:#181818;stroke-width:1.0;"/><line style="stroke:#181818;stroke-width:1.0;stroke-dasharray:2.0,2.0;" x1="593.5" x2="911.5" y1="442.0547" y2="442.0547"/><text fill="#000000" font-family="sans-serif" font-size="13" lengthAdjust="spacing" textLength="186" x="605.5" y="436.9888">comsume like_created event</text><polygon fill="#181818" points="399.5,467.1875,389.5,471.1875,399.5,475.1875,395.5,471.1875" style="stroke:#181818;stroke-width:1.0;"/><line style="stroke:#181818;stroke-width:1.0;" x1="393.5" x2="587.5" y1="471.1875" y2="471.1875"/><text fill="#000000" font-family="sans-serif" font-size="13" lengthAdjust="spacing" textLength="102" x="405.5" y="466.1216">request like info</text><path d="M290.5,486.1875 L356.5,486.1875 L356.5,493.3203 L346.5,503.3203 L290.5,503.3203 L290.5,486.1875 " fill="#EEEEEE" style="stroke:#000000;stroke-width:1.5;"/><rect fill="none" height="117.5313" style="stroke:#000000;stroke-width:1.5;" width="591.5" x="290.5" y="486.1875"/><text fill="#000000" font-family="sans-serif" font-size="13" font-weight="bold" lengthAdjust="spacing" textLength="21" x="305.5" y="499.2544">alt</text><text fill="#000000" font-family="sans-serif" font-size="11" font-weight="bold" lengthAdjust="spacing" textLength="65" x="371.5" y="498.3979">[if exists]</text><polygon fill="#181818" points="339.5,520.4531,329.5,524.4531,339.5,528.4531,335.5,524.4531" style="stroke:#181818;stroke-width:1.0;"/><line style="stroke:#181818;stroke-width:1.0;" x1="333.5" x2="587.5" y1="524.4531" y2="524.4531"/><text fill="#000000" font-family="sans-serif" font-size="13" lengthAdjust="spacing" textLength="142" x="345.5" y="519.3872">request post author id</text><line style="stroke:#181818;stroke-width:1.0;" x1="588.5" x2="630.5" y1="553.5859" y2="553.5859"/><line style="stroke:#181818;stroke-width:1.0;" x1="630.5" x2="630.5" y1="553.5859" y2="566.5859"/><line style="stroke:#181818;stroke-width:1.0;" x1="589.5" x2="630.5" y1="566.5859" y2="566.5859"/><polygon fill="#181818" points="599.5,562.5859,589.5,566.5859,599.5,570.5859,595.5,566.5859" style="stroke:#181818;stroke-width:1.0;"/><text fill="#000000" font-family="sans-serif" font-size="13" lengthAdjust="spacing" textLength="184" x="595.5" y="548.52">insert/update user inbox info</text><polygon fill="#181818" points="836.5,591.7188,846.5,595.7188,836.5,599.7188,840.5,595.7188" style="stroke:#181818;stroke-width:1.0;"/><line style="stroke:#181818;stroke-width:1.0;" x1="588.5" x2="842.5" y1="595.7188" y2="595.7188"/><text fill="#000000" font-family="sans-serif" font-size="13" lengthAdjust="spacing" textLength="236" x="595.5" y="590.6528">request push notification reservation</text><!--SRC=[RLBBJiGm3BpdAwmzmM75VOKu8BGI0YGkt91GjdMerJOfUIpBtsCdQKibJdLd9XvxaaXnGDXDBaGOg4SmW_lUAQMRw3oy1VIW0oJ-gadxI0rDsaQuFnu5FncpWL-m9It4ACM6UfRcp8Z9XdYq9tSHXgJOKAyfTC9C_5LV2HF2apPzTkYbK4ecW_sTJ78e2sYGPHG3WkT13j1qsFH01cA7cGUyK8X1wI4AR5r5IiFRVMc8tdCA7iFaR425jftxYbKrzCYZySdyir341tpDbAnnx_RgmObFH_PJBFNWKRS_TP3ht9Xzo-d5SZFEWXOhzief73YWqq2SbU0V3VUDs0AUqKQL5LcRy-Ket1ZIYFzfis9TeIwsxZ2dLRDRv3NaMP_prIbsd1srgwmEK9AvILFBrlbf5QPOB6gvz3yzvIbmUcIeqP6SbJ3GdtCj5_CB]--></g></svg>